<svg version="1.1" xmlns="http://www.w3.org/2000/svg" xmlns:xlink="http://www.w3.org/1999/xlink" width="107.63720703125" height="358"><defs/><g><text fill="#eeeeee" stroke="none" font-family="Arial" font-size="24px" font-style="normal" font-weight="normal" text-decoration="none" x="0" y="0">UNREGISTERED</text><text fill="#eeeeee" stroke="none" font-family="Arial" font-size="24px" font-style="normal" font-weight="normal" text-decoration="none" x="0" y="30">UNREGISTERED</text><text fill="#eeeeee" stroke="none" font-family="Arial" font-size="24px" font-style="normal" font-weight="normal" text-decoration="none" x="0" y="60">UNREGISTERED</text><text fill="#eeeeee" stroke="none" font-family="Arial" font-size="24px" font-style="normal" font-weight="normal" text-decoration="none" x="0" y="90">UNREGISTERED</text><text fill="#eeeeee" stroke="none" font-family="Arial" font-size="24px" font-style="normal" font-weight="normal" text-decoration="none" x="0" y="120">UNREGISTERED</text><text fill="#eeeeee" stroke="none" font-family="Arial" font-size="24px" font-style="normal" font-weight="normal" text-decoration="none" x="0" y="150">UNREGISTERED</text><text fill="#eeeeee" stroke="none" font-family="Arial" font-size="24px" font-style="normal" font-weight="normal" text-decoration="none" x="0" y="180">UNREGISTERED</text><text fill="#eeeeee" stroke="none" font-family="Arial" font-size="24px" font-style="normal" font-weight="normal" text-decoration="none" x="0" y="210">UNREGISTERED</text><text fill="#eeeeee" stroke="none" font-family="Arial" font-size="24px" font-style="normal" font-weight="normal" text-decoration="none" x="0" y="240">UNREGISTERED</text><text fill="#eeeeee" stroke="none" font-family="Arial" font-size="24px" font-style="normal" font-weight="normal" text-decoration="none" x="0" y="270">UNREGISTERED</text><text fill="#eeeeee" stroke="none" font-family="Arial" font-size="24px" font-style="normal" font-weight="normal" text-decoration="none" x="0" y="300">UNREGISTERED</text><text fill="#eeeeee" stroke="none" font-family="Arial" font-size="24px" font-style="normal" font-weight="normal" text-decoration="none" x="0" y="330">UNREGISTERED</text><g transform="translate(-534,-142) scale(1,1)"><path fill="#ffffff" stroke="none" d="M 567 152 L 608.63720703125 152 Q 631.63720703125 152 631.63720703125 175 L 631.63720703125 174 Q 631.63720703125 197 608.63720703125 197 L 567 197 Q 544 197 544 174 L 544 175 Q 544 152 567 152 Z"/></g><g transform="translate(-534,-142) scale(1,1)"><path fill="none" stroke="#000000" d="M 567 152 L 608.63720703125 152 Q 631.63720703125 152 631.63720703125 175 L 631.63720703125 174 Q 631.63720703125 197 608.63720703125 197 L 567 197 Q 544 197 544 174 L 544 175 Q 544 152 567 152 Z" stroke-miterlimit="10"/></g><g transform="translate(-534,-142) scale(1,1)"><g><path fill="none" stroke="none"/><text fill="#000000" stroke="none" font-family="Arial" font-size="13px" font-style="normal" font-weight="normal" text-decoration="none" x="558.54638671875" y="174.5">End of leg</text><text fill="#000000" stroke="none" font-family="Arial" font-size="13px" font-style="normal" font-weight="normal" text-decoration="none" x="584.20361328125" y="187.5">3</text></g></g><g transform="translate(-534,-142) scale(1,1)"><rect fill="#ffffff" stroke="none" x="552" y="216" width="73.18994140625" height="58"/></g><g transform="translate(-534,-142) scale(1,1)"><path fill="none" stroke="#000000" d="M 552 216 L 625.18994140625 216 L 625.18994140625 274 L 552 274 L 552 216 Z Z" stroke-miterlimit="10"/></g><g transform="translate(-534,-142) scale(1,1)"><g><path fill="none" stroke="none"/><text fill="#000000" stroke="none" font-family="Arial" font-size="13px" font-style="normal" font-weight="normal" text-decoration="none" x="564.391357421875" y="238.5">Remove</text><text fill="#000000" stroke="none" font-family="Arial" font-size="13px" font-style="normal" font-weight="normal" text-decoration="none" x="570.38037109375" y="251.5">DNF'd</text><text fill="#000000" stroke="none" font-family="Arial" font-size="13px" font-style="normal" font-weight="normal" text-decoration="none" x="572.694091796875" y="264.5">boats</text></g></g><g transform="translate(-534,-142) scale(1,1)"><rect fill="#ffffff" stroke="none" x="552" y="296" width="73.18994140625" height="45"/></g><g transform="translate(-534,-142) scale(1,1)"><path fill="none" stroke="#000000" d="M 552 296 L 625.18994140625 296 L 625.18994140625 341 L 552 341 L 552 296 Z Z" stroke-miterlimit="10"/></g><g transform="translate(-534,-142) scale(1,1)"><g><path fill="none" stroke="none"/><text fill="#000000" stroke="none" font-family="Arial" font-size="13px" font-style="normal" font-weight="normal" text-decoration="none" x="576.674072265625" y="318.5">Sort</text><text fill="#000000" stroke="none" font-family="Arial" font-size="13px" font-style="normal" font-weight="normal" text-decoration="none" x="573.0654296875" y="331.5">times</text></g></g><g transform="translate(-534,-142) scale(1,1)"><rect fill="#ffffff" stroke="none" x="552" y="360" width="73.18994140625" height="58"/></g><g transform="translate(-534,-142) scale(1,1)"><path fill="none" stroke="#000000" d="M 552 360 L 625.18994140625 360 L 625.18994140625 418 L 552 418 L 552 360 Z Z" stroke-miterlimit="10"/></g><g transform="translate(-534,-142) scale(1,1)"><g><path fill="none" stroke="none"/><text fill="#000000" stroke="none" font-family="Arial" font-size="13px" font-style="normal" font-weight="normal" text-decoration="none" x="565.4736328125" y="382.5">Pick top</text><text fill="#000000" stroke="none" font-family="Arial" font-size="13px" font-style="normal" font-weight="normal" text-decoration="none" x="577.38818359375" y="395.5">&lt;=3</text><text fill="#000000" stroke="none" font-family="Arial" font-size="13px" font-style="normal" font-weight="normal" text-decoration="none" x="572.694091796875" y="408.5">boats</text></g></g><g transform="translate(-534,-142) scale(1,1)"><path fill="#ffffff" stroke="none" d="M 573.5 432 L 602.13720703125 432 Q 631.63720703125 432 631.63720703125 461.5 L 631.63720703125 460.5 Q 631.63720703125 490 602.13720703125 490 L 573.5 490 Q 544 490 544 460.5 L 544 461.5 Q 544 432 573.5 432 Z"/></g><g transform="translate(-534,-142) scale(1,1)"><path fill="none" stroke="#000000" d="M 573.5 432 L 602.13720703125 432 Q 631.63720703125 432 631.63720703125 461.5 L 631.63720703125 460.5 Q 631.63720703125 490 602.13720703125 490 L 573.5 490 Q 544 490 544 460.5 L 544 461.5 Q 544 432 573.5 432 Z" stroke-miterlimit="10"/></g><g transform="translate(-534,-142) scale(1,1)"><g><path fill="none" stroke="none"/><text fill="#000000" stroke="none" font-family="Arial" font-size="13px" font-style="normal" font-weight="normal" text-decoration="none" x="560.36181640625" y="454.5">Start final</text><text fill="#000000" stroke="none" font-family="Arial" font-size="13px" font-style="normal" font-weight="normal" text-decoration="none" x="565.417724609375" y="467.5">with the</text><text fill="#000000" stroke="none" font-family="Arial" font-size="13px" font-style="normal" font-weight="normal" text-decoration="none" x="558.905029296875" y="480.5">&lt;=3 boats</text></g></g><g transform="translate(-534,-142) scale(1,1)"><path fill="none" stroke="#000000" d="M 587 197 L 587 216" stroke-miterlimit="10"/></g><g transform="translate(-534,-142) scale(1,1)"><path fill="#000000" stroke="none" d="M 582.790482243984 205.83732514237585 L 587 216 L 591.209517756016 205.83732514237585"/></g><g transform="translate(-534,-142) scale(1,1)"><path fill="none" stroke="#000000" d="M 582.790482243984 205.83732514237585 L 587 216 L 591.209517756016 205.83732514237585 L 582.790482243984 205.83732514237585" stroke-miterlimit="10"/></g><g transform="translate(-534,-142) scale(1,1)"><path fill="none" stroke="#000000" d="M 588 274 L 588 296" stroke-miterlimit="10"/></g><g transform="translate(-534,-142) scale(1,1)"><path fill="#000000" stroke="none" d="M 583.790482243984 285.83732514237585 L 588 296 L 592.209517756016 285.83732514237585"/></g><g transform="translate(-534,-142) scale(1,1)"><path fill="none" stroke="#000000" d="M 583.790482243984 285.83732514237585 L 588 296 L 592.209517756016 285.83732514237585 L 583.790482243984 285.83732514237585" stroke-miterlimit="10"/></g><g transform="translate(-534,-142) scale(1,1)"><path fill="none" stroke="#000000" d="M 588 341 L 588 360" stroke-miterlimit="10"/></g><g transform="translate(-534,-142) scale(1,1)"><path fill="#000000" stroke="none" d="M 583.790482243984 349.83732514237585 L 588 360 L 592.209517756016 349.83732514237585"/></g><g transform="translate(-534,-142) scale(1,1)"><path fill="none" stroke="#000000" d="M 583.790482243984 349.83732514237585 L 588 360 L 592.209517756016 349.83732514237585 L 583.790482243984 349.83732514237585" stroke-miterlimit="10"/></g><g transform="translate(-534,-142) scale(1,1)"><path fill="none" stroke="#000000" d="M 588 418 L 588 432" stroke-miterlimit="10"/></g><g transform="translate(-534,-142) scale(1,1)"><path fill="#000000" stroke="none" d="M 583.790482243984 421.83732514237585 L 588 432 L 592.209517756016 421.83732514237585"/></g><g transform="translate(-534,-142) scale(1,1)"><path fill="none" stroke="#000000" d="M 583.790482243984 421.83732514237585 L 588 432 L 592.209517756016 421.83732514237585 L 583.790482243984 421.83732514237585" stroke-miterlimit="10"/></g></g></svg>