<svg version="1.1" xmlns="http://www.w3.org/2000/svg" xmlns:xlink="http://www.w3.org/1999/xlink" width="301.18994140625" height="572"><defs/><g><text fill="#eeeeee" stroke="none" font-family="Arial" font-size="24px" font-style="normal" font-weight="normal" text-decoration="none" x="0" y="0">UNREGISTERED</text><text fill="#eeeeee" stroke="none" font-family="Arial" font-size="24px" font-style="normal" font-weight="normal" text-decoration="none" x="0" y="30">UNREGISTERED</text><text fill="#eeeeee" stroke="none" font-family="Arial" font-size="24px" font-style="normal" font-weight="normal" text-decoration="none" x="0" y="60">UNREGISTERED</text><text fill="#eeeeee" stroke="none" font-family="Arial" font-size="24px" font-style="normal" font-weight="normal" text-decoration="none" x="0" y="90">UNREGISTERED</text><text fill="#eeeeee" stroke="none" font-family="Arial" font-size="24px" font-style="normal" font-weight="normal" text-decoration="none" x="0" y="120">UNREGISTERED</text><text fill="#eeeeee" stroke="none" font-family="Arial" font-size="24px" font-style="normal" font-weight="normal" text-decoration="none" x="0" y="150">UNREGISTERED</text><text fill="#eeeeee" stroke="none" font-family="Arial" font-size="24px" font-style="normal" font-weight="normal" text-decoration="none" x="0" y="180">UNREGISTERED</text><text fill="#eeeeee" stroke="none" font-family="Arial" font-size="24px" font-style="normal" font-weight="normal" text-decoration="none" x="0" y="210">UNREGISTERED</text><text fill="#eeeeee" stroke="none" font-family="Arial" font-size="24px" font-style="normal" font-weight="normal" text-decoration="none" x="0" y="240">UNREGISTERED</text><text fill="#eeeeee" stroke="none" font-family="Arial" font-size="24px" font-style="normal" font-weight="normal" text-decoration="none" x="0" y="270">UNREGISTERED</text><text fill="#eeeeee" stroke="none" font-family="Arial" font-size="24px" font-style="normal" font-weight="normal" text-decoration="none" x="0" y="300">UNREGISTERED</text><text fill="#eeeeee" stroke="none" font-family="Arial" font-size="24px" font-style="normal" font-weight="normal" text-decoration="none" x="0" y="330">UNREGISTERED</text><text fill="#eeeeee" stroke="none" font-family="Arial" font-size="24px" font-style="normal" font-weight="normal" text-decoration="none" x="0" y="360">UNREGISTERED</text><text fill="#eeeeee" stroke="none" font-family="Arial" font-size="24px" font-style="normal" font-weight="normal" text-decoration="none" x="0" y="390">UNREGISTERED</text><text fill="#eeeeee" stroke="none" font-family="Arial" font-size="24px" font-style="normal" font-weight="normal" text-decoration="none" x="0" y="420">UNREGISTERED</text><text fill="#eeeeee" stroke="none" font-family="Arial" font-size="24px" font-style="normal" font-weight="normal" text-decoration="none" x="0" y="450">UNREGISTERED</text><text fill="#eeeeee" stroke="none" font-family="Arial" font-size="24px" font-style="normal" font-weight="normal" text-decoration="none" x="0" y="480">UNREGISTERED</text><text fill="#eeeeee" stroke="none" font-family="Arial" font-size="24px" font-style="normal" font-weight="normal" text-decoration="none" x="0" y="510">UNREGISTERED</text><text fill="#eeeeee" stroke="none" font-family="Arial" font-size="24px" font-style="normal" font-weight="normal" text-decoration="none" x="0" y="540">UNREGISTERED</text><text fill="#eeeeee" stroke="none" font-family="Arial" font-size="24px" font-style="normal" font-weight="normal" text-decoration="none" x="0" y="570">UNREGISTERED</text><text fill="#eeeeee" stroke="none" font-family="Arial" font-size="24px" font-style="normal" font-weight="normal" text-decoration="none" x="200" y="0">UNREGISTERED</text><text fill="#eeeeee" stroke="none" font-family="Arial" font-size="24px" font-style="normal" font-weight="normal" text-decoration="none" x="200" y="30">UNREGISTERED</text><text fill="#eeeeee" stroke="none" font-family="Arial" font-size="24px" font-style="normal" font-weight="normal" text-decoration="none" x="200" y="60">UNREGISTERED</text><text fill="#eeeeee" stroke="none" font-family="Arial" font-size="24px" font-style="normal" font-weight="normal" text-decoration="none" x="200" y="90">UNREGISTERED</text><text fill="#eeeeee" stroke="none" font-family="Arial" font-size="24px" font-style="normal" font-weight="normal" text-decoration="none" x="200" y="120">UNREGISTERED</text><text fill="#eeeeee" stroke="none" font-family="Arial" font-size="24px" font-style="normal" font-weight="normal" text-decoration="none" x="200" y="150">UNREGISTERED</text><text fill="#eeeeee" stroke="none" font-family="Arial" font-size="24px" font-style="normal" font-weight="normal" text-decoration="none" x="200" y="180">UNREGISTERED</text><text fill="#eeeeee" stroke="none" font-family="Arial" font-size="24px" font-style="normal" font-weight="normal" text-decoration="none" x="200" y="210">UNREGISTERED</text><text fill="#eeeeee" stroke="none" font-family="Arial" font-size="24px" font-style="normal" font-weight="normal" text-decoration="none" x="200" y="240">UNREGISTERED</text><text fill="#eeeeee" stroke="none" font-family="Arial" font-size="24px" font-style="normal" font-weight="normal" text-decoration="none" x="200" y="270">UNREGISTERED</text><text fill="#eeeeee" stroke="none" font-family="Arial" font-size="24px" font-style="normal" font-weight="normal" text-decoration="none" x="200" y="300">UNREGISTERED</text><text fill="#eeeeee" stroke="none" font-family="Arial" font-size="24px" font-style="normal" font-weight="normal" text-decoration="none" x="200" y="330">UNREGISTERED</text><text fill="#eeeeee" stroke="none" font-family="Arial" font-size="24px" font-style="normal" font-weight="normal" text-decoration="none" x="200" y="360">UNREGISTERED</text><text fill="#eeeeee" stroke="none" font-family="Arial" font-size="24px" font-style="normal" font-weight="normal" text-decoration="none" x="200" y="390">UNREGISTERED</text><text fill="#eeeeee" stroke="none" font-family="Arial" font-size="24px" font-style="normal" font-weight="normal" text-decoration="none" x="200" y="420">UNREGISTERED</text><text fill="#eeeeee" stroke="none" font-family="Arial" font-size="24px" font-style="normal" font-weight="normal" text-decoration="none" x="200" y="450">UNREGISTERED</text><text fill="#eeeeee" stroke="none" font-family="Arial" font-size="24px" font-style="normal" font-weight="normal" text-decoration="none" x="200" y="480">UNREGISTERED</text><text fill="#eeeeee" stroke="none" font-family="Arial" font-size="24px" font-style="normal" font-weight="normal" text-decoration="none" x="200" y="510">UNREGISTERED</text><text fill="#eeeeee" stroke="none" font-family="Arial" font-size="24px" font-style="normal" font-weight="normal" text-decoration="none" x="200" y="540">UNREGISTERED</text><text fill="#eeeeee" stroke="none" font-family="Arial" font-size="24px" font-style="normal" font-weight="normal" text-decoration="none" x="200" y="570">UNREGISTERED</text><g transform="translate(-710,-102) scale(1,1)"><path fill="#ffffff" stroke="none" d="M 764 112 L 779.63720703125 112 Q 815.63720703125 112 815.63720703125 148 L 815.63720703125 147 Q 815.63720703125 183 779.63720703125 183 L 764 183 Q 728 183 728 147 L 728 148 Q 728 112 764 112 Z"/></g><g transform="translate(-710,-102) scale(1,1)"><path fill="none" stroke="#000000" d="M 764 112 L 779.63720703125 112 Q 815.63720703125 112 815.63720703125 148 L 815.63720703125 147 Q 815.63720703125 183 779.63720703125 183 L 764 183 Q 728 183 728 147 L 728 148 Q 728 112 764 112 Z" stroke-miterlimit="10"/></g><g transform="translate(-710,-102) scale(1,1)"><g><path fill="none" stroke="none"/><text fill="#000000" stroke="none" font-family="Arial" font-size="13px" font-style="normal" font-weight="normal" text-decoration="none" x="758.447265625" y="134.5">Boat</text><text fill="#000000" stroke="none" font-family="Arial" font-size="13px" font-style="normal" font-weight="normal" text-decoration="none" x="750.141357421875" y="147.5">collides</text><text fill="#000000" stroke="none" font-family="Arial" font-size="13px" font-style="normal" font-weight="normal" text-decoration="none" x="760.259521484375" y="160.5">with</text><text fill="#000000" stroke="none" font-family="Arial" font-size="13px" font-style="normal" font-weight="normal" text-decoration="none" x="741.8291015625" y="173.5">something</text></g></g><g transform="translate(-710,-102) scale(1,1)"><path fill="#ffffff" stroke="none" d="M 720 254.5 L 776.58447265625 216 L 833.1689453125 254.5 L 776.58447265625 293 L 720 254.5"/></g><g transform="translate(-710,-102) scale(1,1)"><path fill="none" stroke="#000000" d="M 720 254.5 L 776.58447265625 216 L 833.1689453125 254.5 L 776.58447265625 293 L 720 254.5 L 720 254.5" stroke-miterlimit="10"/></g><g transform="translate(-710,-102) scale(1,1)"><g><path fill="none" stroke="none"/><text fill="#000000" stroke="none" font-family="Arial" font-size="13px" font-style="normal" font-weight="normal" text-decoration="none" x="766.47265625" y="248">Is it</text><text fill="#000000" stroke="none" font-family="Arial" font-size="13px" font-style="normal" font-weight="normal" text-decoration="none" x="754.5390625" y="261">another</text><text fill="#000000" stroke="none" font-family="Arial" font-size="13px" font-style="normal" font-weight="normal" text-decoration="none" x="759.59814453125" y="274">Boat?</text></g></g><g transform="translate(-710,-102) scale(1,1)"><path fill="#ffffff" stroke="none" d="M 816 361.5 L 872.58447265625 336 L 929.1689453125 361.5 L 872.58447265625 387 L 816 361.5"/></g><g transform="translate(-710,-102) scale(1,1)"><path fill="none" stroke="#000000" d="M 816 361.5 L 872.58447265625 336 L 929.1689453125 361.5 L 872.58447265625 387 L 816 361.5 L 816 361.5" stroke-miterlimit="10"/></g><g transform="translate(-710,-102) scale(1,1)"><g><path fill="none" stroke="none"/><text fill="#000000" stroke="none" font-family="Arial" font-size="13px" font-style="normal" font-weight="normal" text-decoration="none" x="857.0517578125" y="361.5">Is it a</text><text fill="#000000" stroke="none" font-family="Arial" font-size="13px" font-style="normal" font-weight="normal" text-decoration="none" x="854.160400390625" y="374.5">Rock?</text></g></g><g transform="translate(-710,-102) scale(1,1)"><rect fill="#ffffff" stroke="none" x="744" y="504" width="73.18994140625" height="71"/></g><g transform="translate(-710,-102) scale(1,1)"><path fill="none" stroke="#000000" d="M 744 504 L 817.18994140625 504 L 817.18994140625 575 L 744 575 L 744 504 Z Z" stroke-miterlimit="10"/></g><g transform="translate(-710,-102) scale(1,1)"><g><path fill="none" stroke="none"/><text fill="#000000" stroke="none" font-family="Arial" font-size="13px" font-style="normal" font-weight="normal" text-decoration="none" x="766.864990234375" y="526.5">Take</text><text fill="#000000" stroke="none" font-family="Arial" font-size="13px" font-style="normal" font-weight="normal" text-decoration="none" x="757.10546875" y="539.5">damage</text><text fill="#000000" stroke="none" font-family="Arial" font-size="13px" font-style="normal" font-weight="normal" text-decoration="none" x="754.94091796875" y="552.5">and slow</text><text fill="#000000" stroke="none" font-family="Arial" font-size="13px" font-style="normal" font-weight="normal" text-decoration="none" x="765.055908203125" y="565.5">down</text></g></g><g transform="translate(-710,-102) scale(1,1)"><rect fill="#ffffff" stroke="none" x="928" y="440" width="73.18994140625" height="58"/></g><g transform="translate(-710,-102) scale(1,1)"><path fill="none" stroke="#000000" d="M 928 440 L 1001.18994140625 440 L 1001.18994140625 498 L 928 498 L 928 440 Z Z" stroke-miterlimit="10"/></g><g transform="translate(-710,-102) scale(1,1)"><g><path fill="none" stroke="none"/><text fill="#000000" stroke="none" font-family="Arial" font-size="13px" font-style="normal" font-weight="normal" text-decoration="none" x="940.391357421875" y="462.5">Remove</text><text fill="#000000" stroke="none" font-family="Arial" font-size="13px" font-style="normal" font-weight="normal" text-decoration="none" x="942.552734375" y="475.5">collided</text><text fill="#000000" stroke="none" font-family="Arial" font-size="13px" font-style="normal" font-weight="normal" text-decoration="none" x="949.05908203125" y="488.5">entity</text></g></g><g transform="translate(-710,-102) scale(1,1)"><path fill="none" stroke="#000000" d="M 776 183 L 776 216" stroke-miterlimit="10"/></g><g transform="translate(-710,-102) scale(1,1)"><path fill="#000000" stroke="none" d="M 771.790482243984 205.83732514237585 L 776 216 L 780.209517756016 205.83732514237585"/></g><g transform="translate(-710,-102) scale(1,1)"><path fill="none" stroke="#000000" d="M 771.790482243984 205.83732514237585 L 776 216 L 780.209517756016 205.83732514237585 L 771.790482243984 205.83732514237585" stroke-miterlimit="10"/></g><g transform="translate(-710,-102) scale(1,1)"><path fill="none" stroke="#000000" d="M 833 256 L 864 256 M 864 256 A 8 8 0 0 1 872 264 L 872 336" stroke-miterlimit="10"/></g><g transform="translate(-710,-102) scale(1,1)"><path fill="#000000" stroke="none" d="M 867.790482243984 325.83732514237585 L 872 336 L 876.209517756016 325.83732514237585"/></g><g transform="translate(-710,-102) scale(1,1)"><path fill="none" stroke="#000000" d="M 867.790482243984 325.83732514237585 L 872 336 L 876.209517756016 325.83732514237585 L 867.790482243984 325.83732514237585" stroke-miterlimit="10"/></g><g transform="translate(-710,-102) scale(1,1)"><g><path fill="none" stroke="none"/><text fill="#000000" stroke="none" font-family="Arial" font-size="13px" font-style="normal" font-weight="normal" text-decoration="none" x="846.5" y="284.5">No</text></g></g><g transform="translate(-710,-102) scale(1,1)"><path fill="none" stroke="#000000" d="M 776 293 L 776 504" stroke-miterlimit="10"/></g><g transform="translate(-710,-102) scale(1,1)"><path fill="#000000" stroke="none" d="M 771.790482243984 493.83732514237585 L 776 504 L 780.209517756016 493.83732514237585"/></g><g transform="translate(-710,-102) scale(1,1)"><path fill="none" stroke="#000000" d="M 771.790482243984 493.83732514237585 L 776 504 L 780.209517756016 493.83732514237585 L 771.790482243984 493.83732514237585" stroke-miterlimit="10"/></g><g transform="translate(-710,-102) scale(1,1)"><g><path fill="none" stroke="none"/><text fill="#000000" stroke="none" font-family="Arial" font-size="13px" font-style="normal" font-weight="normal" text-decoration="none" x="783.5" y="308.5">Yes</text></g></g><g transform="translate(-710,-102) scale(1,1)"><path fill="none" stroke="#000000" d="M 816 361 L 784 361 M 784 361 A 8 8 0 0 0 776 369 L 776 504" stroke-miterlimit="10"/></g><g transform="translate(-710,-102) scale(1,1)"><path fill="#000000" stroke="none" d="M 771.790482243984 493.83732514237585 L 776 504 L 780.209517756016 493.83732514237585"/></g><g transform="translate(-710,-102) scale(1,1)"><path fill="none" stroke="#000000" d="M 771.790482243984 493.83732514237585 L 776 504 L 780.209517756016 493.83732514237585 L 771.790482243984 493.83732514237585" stroke-miterlimit="10"/></g><g transform="translate(-710,-102) scale(1,1)"><g><path fill="none" stroke="none"/><text fill="#000000" stroke="none" font-family="Arial" font-size="13px" font-style="normal" font-weight="normal" text-decoration="none" x="799.5" y="387.5">Yes</text></g></g><g transform="translate(-710,-102) scale(1,1)"><path fill="none" stroke="#000000" d="M 929 360 L 952 360 M 952 360 A 8 8 0 0 1 960 368 L 960 440" stroke-miterlimit="10"/></g><g transform="translate(-710,-102) scale(1,1)"><path fill="#000000" stroke="none" d="M 955.790482243984 429.83732514237585 L 960 440 L 964.209517756016 429.83732514237585"/></g><g transform="translate(-710,-102) scale(1,1)"><path fill="none" stroke="#000000" d="M 955.790482243984 429.83732514237585 L 960 440 L 964.209517756016 429.83732514237585 L 955.790482243984 429.83732514237585" stroke-miterlimit="10"/></g><g transform="translate(-710,-102) scale(1,1)"><g><path fill="none" stroke="none"/><text fill="#000000" stroke="none" font-family="Arial" font-size="13px" font-style="normal" font-weight="normal" text-decoration="none" x="926.5" y="388.5">No</text></g></g><g transform="translate(-710,-102) scale(1,1)"><path fill="none" stroke="#000000" d="M 960 498 L 960 528 M 960 528 A 8 8 0 0 1 952 536 L 817 536" stroke-miterlimit="10"/></g><g transform="translate(-710,-102) scale(1,1)"><path fill="#000000" stroke="none" d="M 827.1626748576241 531.790482243984 L 817 536 L 827.1626748576241 540.209517756016"/></g><g transform="translate(-710,-102) scale(1,1)"><path fill="none" stroke="#000000" d="M 827.1626748576241 531.790482243984 L 817 536 L 827.1626748576241 540.209517756016 L 827.1626748576241 531.790482243984" stroke-miterlimit="10"/></g><g transform="translate(-710,-102) scale(1,1)"><path fill="#ffffff" stroke="none" d="M 752.5 632 L 807.13720703125 632 Q 823.63720703125 632 823.63720703125 648.5 L 823.63720703125 647.5 Q 823.63720703125 664 807.13720703125 664 L 752.5 664 Q 736 664 736 647.5 L 736 648.5 Q 736 632 752.5 632 Z"/></g><g transform="translate(-710,-102) scale(1,1)"><path fill="none" stroke="#000000" d="M 752.5 632 L 807.13720703125 632 Q 823.63720703125 632 823.63720703125 648.5 L 823.63720703125 647.5 Q 823.63720703125 664 807.13720703125 664 L 752.5 664 Q 736 664 736 647.5 L 736 648.5 Q 736 632 752.5 632 Z" stroke-miterlimit="10"/></g><g transform="translate(-710,-102) scale(1,1)"><g><path fill="none" stroke="none"/><text fill="#000000" stroke="none" font-family="Arial" font-size="13px" font-style="normal" font-weight="normal" text-decoration="none" x="768.253173828125" y="654.5">End</text></g></g><g transform="translate(-710,-102) scale(1,1)"><path fill="none" stroke="#000000" d="M 780 575 L 780 632" stroke-miterlimit="10"/></g><g transform="translate(-710,-102) scale(1,1)"><path fill="#000000" stroke="none" d="M 775.790482243984 621.8373251423759 L 780 632 L 784.209517756016 621.8373251423759"/></g><g transform="translate(-710,-102) scale(1,1)"><path fill="none" stroke="#000000" d="M 775.790482243984 621.8373251423759 L 780 632 L 784.209517756016 621.8373251423759 L 775.790482243984 621.8373251423759" stroke-miterlimit="10"/></g></g></svg>