<svg version="1.1" xmlns="http://www.w3.org/2000/svg" xmlns:xlink="http://www.w3.org/1999/xlink" width="613.18994140625" height="860"><defs/><g><text fill="#eeeeee" stroke="none" font-family="Arial" font-size="24px" font-style="normal" font-weight="normal" text-decoration="none" x="0" y="0">UNREGISTERED</text><text fill="#eeeeee" stroke="none" font-family="Arial" font-size="24px" font-style="normal" font-weight="normal" text-decoration="none" x="0" y="30">UNREGISTERED</text><text fill="#eeeeee" stroke="none" font-family="Arial" font-size="24px" font-style="normal" font-weight="normal" text-decoration="none" x="0" y="60">UNREGISTERED</text><text fill="#eeeeee" stroke="none" font-family="Arial" font-size="24px" font-style="normal" font-weight="normal" text-decoration="none" x="0" y="90">UNREGISTERED</text><text fill="#eeeeee" stroke="none" font-family="Arial" font-size="24px" font-style="normal" font-weight="normal" text-decoration="none" x="0" y="120">UNREGISTERED</text><text fill="#eeeeee" stroke="none" font-family="Arial" font-size="24px" font-style="normal" font-weight="normal" text-decoration="none" x="0" y="150">UNREGISTERED</text><text fill="#eeeeee" stroke="none" font-family="Arial" font-size="24px" font-style="normal" font-weight="normal" text-decoration="none" x="0" y="180">UNREGISTERED</text><text fill="#eeeeee" stroke="none" font-family="Arial" font-size="24px" font-style="normal" font-weight="normal" text-decoration="none" x="0" y="210">UNREGISTERED</text><text fill="#eeeeee" stroke="none" font-family="Arial" font-size="24px" font-style="normal" font-weight="normal" text-decoration="none" x="0" y="240">UNREGISTERED</text><text fill="#eeeeee" stroke="none" font-family="Arial" font-size="24px" font-style="normal" font-weight="normal" text-decoration="none" x="0" y="270">UNREGISTERED</text><text fill="#eeeeee" stroke="none" font-family="Arial" font-size="24px" font-style="normal" font-weight="normal" text-decoration="none" x="0" y="300">UNREGISTERED</text><text fill="#eeeeee" stroke="none" font-family="Arial" font-size="24px" font-style="normal" font-weight="normal" text-decoration="none" x="0" y="330">UNREGISTERED</text><text fill="#eeeeee" stroke="none" font-family="Arial" font-size="24px" font-style="normal" font-weight="normal" text-decoration="none" x="0" y="360">UNREGISTERED</text><text fill="#eeeeee" stroke="none" font-family="Arial" font-size="24px" font-style="normal" font-weight="normal" text-decoration="none" x="0" y="390">UNREGISTERED</text><text fill="#eeeeee" stroke="none" font-family="Arial" font-size="24px" font-style="normal" font-weight="normal" text-decoration="none" x="0" y="420">UNREGISTERED</text><text fill="#eeeeee" stroke="none" font-family="Arial" font-size="24px" font-style="normal" font-weight="normal" text-decoration="none" x="0" y="450">UNREGISTERED</text><text fill="#eeeeee" stroke="none" font-family="Arial" font-size="24px" font-style="normal" font-weight="normal" text-decoration="none" x="0" y="480">UNREGISTERED</text><text fill="#eeeeee" stroke="none" font-family="Arial" font-size="24px" font-style="normal" font-weight="normal" text-decoration="none" x="0" y="510">UNREGISTERED</text><text fill="#eeeeee" stroke="none" font-family="Arial" font-size="24px" font-style="normal" font-weight="normal" text-decoration="none" x="0" y="540">UNREGISTERED</text><text fill="#eeeeee" stroke="none" font-family="Arial" font-size="24px" font-style="normal" font-weight="normal" text-decoration="none" x="0" y="570">UNREGISTERED</text><text fill="#eeeeee" stroke="none" font-family="Arial" font-size="24px" font-style="normal" font-weight="normal" text-decoration="none" x="0" y="600">UNREGISTERED</text><text fill="#eeeeee" stroke="none" font-family="Arial" font-size="24px" font-style="normal" font-weight="normal" text-decoration="none" x="0" y="630">UNREGISTERED</text><text fill="#eeeeee" stroke="none" font-family="Arial" font-size="24px" font-style="normal" font-weight="normal" text-decoration="none" x="0" y="660">UNREGISTERED</text><text fill="#eeeeee" stroke="none" font-family="Arial" font-size="24px" font-style="normal" font-weight="normal" text-decoration="none" x="0" y="690">UNREGISTERED</text><text fill="#eeeeee" stroke="none" font-family="Arial" font-size="24px" font-style="normal" font-weight="normal" text-decoration="none" x="0" y="720">UNREGISTERED</text><text fill="#eeeeee" stroke="none" font-family="Arial" font-size="24px" font-style="normal" font-weight="normal" text-decoration="none" x="0" y="750">UNREGISTERED</text><text fill="#eeeeee" stroke="none" font-family="Arial" font-size="24px" font-style="normal" font-weight="normal" text-decoration="none" x="0" y="780">UNREGISTERED</text><text fill="#eeeeee" stroke="none" font-family="Arial" font-size="24px" font-style="normal" font-weight="normal" text-decoration="none" x="0" y="810">UNREGISTERED</text><text fill="#eeeeee" stroke="none" font-family="Arial" font-size="24px" font-style="normal" font-weight="normal" text-decoration="none" x="0" y="840">UNREGISTERED</text><text fill="#eeeeee" stroke="none" font-family="Arial" font-size="24px" font-style="normal" font-weight="normal" text-decoration="none" x="200" y="0">UNREGISTERED</text><text fill="#eeeeee" stroke="none" font-family="Arial" font-size="24px" font-style="normal" font-weight="normal" text-decoration="none" x="200" y="30">UNREGISTERED</text><text fill="#eeeeee" stroke="none" font-family="Arial" font-size="24px" font-style="normal" font-weight="normal" text-decoration="none" x="200" y="60">UNREGISTERED</text><text fill="#eeeeee" stroke="none" font-family="Arial" font-size="24px" font-style="normal" font-weight="normal" text-decoration="none" x="200" y="90">UNREGISTERED</text><text fill="#eeeeee" stroke="none" font-family="Arial" font-size="24px" font-style="normal" font-weight="normal" text-decoration="none" x="200" y="120">UNREGISTERED</text><text fill="#eeeeee" stroke="none" font-family="Arial" font-size="24px" font-style="normal" font-weight="normal" text-decoration="none" x="200" y="150">UNREGISTERED</text><text fill="#eeeeee" stroke="none" font-family="Arial" font-size="24px" font-style="normal" font-weight="normal" text-decoration="none" x="200" y="180">UNREGISTERED</text><text fill="#eeeeee" stroke="none" font-family="Arial" font-size="24px" font-style="normal" font-weight="normal" text-decoration="none" x="200" y="210">UNREGISTERED</text><text fill="#eeeeee" stroke="none" font-family="Arial" font-size="24px" font-style="normal" font-weight="normal" text-decoration="none" x="200" y="240">UNREGISTERED</text><text fill="#eeeeee" stroke="none" font-family="Arial" font-size="24px" font-style="normal" font-weight="normal" text-decoration="none" x="200" y="270">UNREGISTERED</text><text fill="#eeeeee" stroke="none" font-family="Arial" font-size="24px" font-style="normal" font-weight="normal" text-decoration="none" x="200" y="300">UNREGISTERED</text><text fill="#eeeeee" stroke="none" font-family="Arial" font-size="24px" font-style="normal" font-weight="normal" text-decoration="none" x="200" y="330">UNREGISTERED</text><text fill="#eeeeee" stroke="none" font-family="Arial" font-size="24px" font-style="normal" font-weight="normal" text-decoration="none" x="200" y="360">UNREGISTERED</text><text fill="#eeeeee" stroke="none" font-family="Arial" font-size="24px" font-style="normal" font-weight="normal" text-decoration="none" x="200" y="390">UNREGISTERED</text><text fill="#eeeeee" stroke="none" font-family="Arial" font-size="24px" font-style="normal" font-weight="normal" text-decoration="none" x="200" y="420">UNREGISTERED</text><text fill="#eeeeee" stroke="none" font-family="Arial" font-size="24px" font-style="normal" font-weight="normal" text-decoration="none" x="200" y="450">UNREGISTERED</text><text fill="#eeeeee" stroke="none" font-family="Arial" font-size="24px" font-style="normal" font-weight="normal" text-decoration="none" x="200" y="480">UNREGISTERED</text><text fill="#eeeeee" stroke="none" font-family="Arial" font-size="24px" font-style="normal" font-weight="normal" text-decoration="none" x="200" y="510">UNREGISTERED</text><text fill="#eeeeee" stroke="none" font-family="Arial" font-size="24px" font-style="normal" font-weight="normal" text-decoration="none" x="200" y="540">UNREGISTERED</text><text fill="#eeeeee" stroke="none" font-family="Arial" font-size="24px" font-style="normal" font-weight="normal" text-decoration="none" x="200" y="570">UNREGISTERED</text><text fill="#eeeeee" stroke="none" font-family="Arial" font-size="24px" font-style="normal" font-weight="normal" text-decoration="none" x="200" y="600">UNREGISTERED</text><text fill="#eeeeee" stroke="none" font-family="Arial" font-size="24px" font-style="normal" font-weight="normal" text-decoration="none" x="200" y="630">UNREGISTERED</text><text fill="#eeeeee" stroke="none" font-family="Arial" font-size="24px" font-style="normal" font-weight="normal" text-decoration="none" x="200" y="660">UNREGISTERED</text><text fill="#eeeeee" stroke="none" font-family="Arial" font-size="24px" font-style="normal" font-weight="normal" text-decoration="none" x="200" y="690">UNREGISTERED</text><text fill="#eeeeee" stroke="none" font-family="Arial" font-size="24px" font-style="normal" font-weight="normal" text-decoration="none" x="200" y="720">UNREGISTERED</text><text fill="#eeeeee" stroke="none" font-family="Arial" font-size="24px" font-style="normal" font-weight="normal" text-decoration="none" x="200" y="750">UNREGISTERED</text><text fill="#eeeeee" stroke="none" font-family="Arial" font-size="24px" font-style="normal" font-weight="normal" text-decoration="none" x="200" y="780">UNREGISTERED</text><text fill="#eeeeee" stroke="none" font-family="Arial" font-size="24px" font-style="normal" font-weight="normal" text-decoration="none" x="200" y="810">UNREGISTERED</text><text fill="#eeeeee" stroke="none" font-family="Arial" font-size="24px" font-style="normal" font-weight="normal" text-decoration="none" x="200" y="840">UNREGISTERED</text><text fill="#eeeeee" stroke="none" font-family="Arial" font-size="24px" font-style="normal" font-weight="normal" text-decoration="none" x="400" y="0">UNREGISTERED</text><text fill="#eeeeee" stroke="none" font-family="Arial" font-size="24px" font-style="normal" font-weight="normal" text-decoration="none" x="400" y="30">UNREGISTERED</text><text fill="#eeeeee" stroke="none" font-family="Arial" font-size="24px" font-style="normal" font-weight="normal" text-decoration="none" x="400" y="60">UNREGISTERED</text><text fill="#eeeeee" stroke="none" font-family="Arial" font-size="24px" font-style="normal" font-weight="normal" text-decoration="none" x="400" y="90">UNREGISTERED</text><text fill="#eeeeee" stroke="none" font-family="Arial" font-size="24px" font-style="normal" font-weight="normal" text-decoration="none" x="400" y="120">UNREGISTERED</text><text fill="#eeeeee" stroke="none" font-family="Arial" font-size="24px" font-style="normal" font-weight="normal" text-decoration="none" x="400" y="150">UNREGISTERED</text><text fill="#eeeeee" stroke="none" font-family="Arial" font-size="24px" font-style="normal" font-weight="normal" text-decoration="none" x="400" y="180">UNREGISTERED</text><text fill="#eeeeee" stroke="none" font-family="Arial" font-size="24px" font-style="normal" font-weight="normal" text-decoration="none" x="400" y="210">UNREGISTERED</text><text fill="#eeeeee" stroke="none" font-family="Arial" font-size="24px" font-style="normal" font-weight="normal" text-decoration="none" x="400" y="240">UNREGISTERED</text><text fill="#eeeeee" stroke="none" font-family="Arial" font-size="24px" font-style="normal" font-weight="normal" text-decoration="none" x="400" y="270">UNREGISTERED</text><text fill="#eeeeee" stroke="none" font-family="Arial" font-size="24px" font-style="normal" font-weight="normal" text-decoration="none" x="400" y="300">UNREGISTERED</text><text fill="#eeeeee" stroke="none" font-family="Arial" font-size="24px" font-style="normal" font-weight="normal" text-decoration="none" x="400" y="330">UNREGISTERED</text><text fill="#eeeeee" stroke="none" font-family="Arial" font-size="24px" font-style="normal" font-weight="normal" text-decoration="none" x="400" y="360">UNREGISTERED</text><text fill="#eeeeee" stroke="none" font-family="Arial" font-size="24px" font-style="normal" font-weight="normal" text-decoration="none" x="400" y="390">UNREGISTERED</text><text fill="#eeeeee" stroke="none" font-family="Arial" font-size="24px" font-style="normal" font-weight="normal" text-decoration="none" x="400" y="420">UNREGISTERED</text><text fill="#eeeeee" stroke="none" font-family="Arial" font-size="24px" font-style="normal" font-weight="normal" text-decoration="none" x="400" y="450">UNREGISTERED</text><text fill="#eeeeee" stroke="none" font-family="Arial" font-size="24px" font-style="normal" font-weight="normal" text-decoration="none" x="400" y="480">UNREGISTERED</text><text fill="#eeeeee" stroke="none" font-family="Arial" font-size="24px" font-style="normal" font-weight="normal" text-decoration="none" x="400" y="510">UNREGISTERED</text><text fill="#eeeeee" stroke="none" font-family="Arial" font-size="24px" font-style="normal" font-weight="normal" text-decoration="none" x="400" y="540">UNREGISTERED</text><text fill="#eeeeee" stroke="none" font-family="Arial" font-size="24px" font-style="normal" font-weight="normal" text-decoration="none" x="400" y="570">UNREGISTERED</text><text fill="#eeeeee" stroke="none" font-family="Arial" font-size="24px" font-style="normal" font-weight="normal" text-decoration="none" x="400" y="600">UNREGISTERED</text><text fill="#eeeeee" stroke="none" font-family="Arial" font-size="24px" font-style="normal" font-weight="normal" text-decoration="none" x="400" y="630">UNREGISTERED</text><text fill="#eeeeee" stroke="none" font-family="Arial" font-size="24px" font-style="normal" font-weight="normal" text-decoration="none" x="400" y="660">UNREGISTERED</text><text fill="#eeeeee" stroke="none" font-family="Arial" font-size="24px" font-style="normal" font-weight="normal" text-decoration="none" x="400" y="690">UNREGISTERED</text><text fill="#eeeeee" stroke="none" font-family="Arial" font-size="24px" font-style="normal" font-weight="normal" text-decoration="none" x="400" y="720">UNREGISTERED</text><text fill="#eeeeee" stroke="none" font-family="Arial" font-size="24px" font-style="normal" font-weight="normal" text-decoration="none" x="400" y="750">UNREGISTERED</text><text fill="#eeeeee" stroke="none" font-family="Arial" font-size="24px" font-style="normal" font-weight="normal" text-decoration="none" x="400" y="780">UNREGISTERED</text><text fill="#eeeeee" stroke="none" font-family="Arial" font-size="24px" font-style="normal" font-weight="normal" text-decoration="none" x="400" y="810">UNREGISTERED</text><text fill="#eeeeee" stroke="none" font-family="Arial" font-size="24px" font-style="normal" font-weight="normal" text-decoration="none" x="400" y="840">UNREGISTERED</text><text fill="#eeeeee" stroke="none" font-family="Arial" font-size="24px" font-style="normal" font-weight="normal" text-decoration="none" x="600" y="0">UNREGISTERED</text><text fill="#eeeeee" stroke="none" font-family="Arial" font-size="24px" font-style="normal" font-weight="normal" text-decoration="none" x="600" y="30">UNREGISTERED</text><text fill="#eeeeee" stroke="none" font-family="Arial" font-size="24px" font-style="normal" font-weight="normal" text-decoration="none" x="600" y="60">UNREGISTERED</text><text fill="#eeeeee" stroke="none" font-family="Arial" font-size="24px" font-style="normal" font-weight="normal" text-decoration="none" x="600" y="90">UNREGISTERED</text><text fill="#eeeeee" stroke="none" font-family="Arial" font-size="24px" font-style="normal" font-weight="normal" text-decoration="none" x="600" y="120">UNREGISTERED</text><text fill="#eeeeee" stroke="none" font-family="Arial" font-size="24px" font-style="normal" font-weight="normal" text-decoration="none" x="600" y="150">UNREGISTERED</text><text fill="#eeeeee" stroke="none" font-family="Arial" font-size="24px" font-style="normal" font-weight="normal" text-decoration="none" x="600" y="180">UNREGISTERED</text><text fill="#eeeeee" stroke="none" font-family="Arial" font-size="24px" font-style="normal" font-weight="normal" text-decoration="none" x="600" y="210">UNREGISTERED</text><text fill="#eeeeee" stroke="none" font-family="Arial" font-size="24px" font-style="normal" font-weight="normal" text-decoration="none" x="600" y="240">UNREGISTERED</text><text fill="#eeeeee" stroke="none" font-family="Arial" font-size="24px" font-style="normal" font-weight="normal" text-decoration="none" x="600" y="270">UNREGISTERED</text><text fill="#eeeeee" stroke="none" font-family="Arial" font-size="24px" font-style="normal" font-weight="normal" text-decoration="none" x="600" y="300">UNREGISTERED</text><text fill="#eeeeee" stroke="none" font-family="Arial" font-size="24px" font-style="normal" font-weight="normal" text-decoration="none" x="600" y="330">UNREGISTERED</text><text fill="#eeeeee" stroke="none" font-family="Arial" font-size="24px" font-style="normal" font-weight="normal" text-decoration="none" x="600" y="360">UNREGISTERED</text><text fill="#eeeeee" stroke="none" font-family="Arial" font-size="24px" font-style="normal" font-weight="normal" text-decoration="none" x="600" y="390">UNREGISTERED</text><text fill="#eeeeee" stroke="none" font-family="Arial" font-size="24px" font-style="normal" font-weight="normal" text-decoration="none" x="600" y="420">UNREGISTERED</text><text fill="#eeeeee" stroke="none" font-family="Arial" font-size="24px" font-style="normal" font-weight="normal" text-decoration="none" x="600" y="450">UNREGISTERED</text><text fill="#eeeeee" stroke="none" font-family="Arial" font-size="24px" font-style="normal" font-weight="normal" text-decoration="none" x="600" y="480">UNREGISTERED</text><text fill="#eeeeee" stroke="none" font-family="Arial" font-size="24px" font-style="normal" font-weight="normal" text-decoration="none" x="600" y="510">UNREGISTERED</text><text fill="#eeeeee" stroke="none" font-family="Arial" font-size="24px" font-style="normal" font-weight="normal" text-decoration="none" x="600" y="540">UNREGISTERED</text><text fill="#eeeeee" stroke="none" font-family="Arial" font-size="24px" font-style="normal" font-weight="normal" text-decoration="none" x="600" y="570">UNREGISTERED</text><text fill="#eeeeee" stroke="none" font-family="Arial" font-size="24px" font-style="normal" font-weight="normal" text-decoration="none" x="600" y="600">UNREGISTERED</text><text fill="#eeeeee" stroke="none" font-family="Arial" font-size="24px" font-style="normal" font-weight="normal" text-decoration="none" x="600" y="630">UNREGISTERED</text><text fill="#eeeeee" stroke="none" font-family="Arial" font-size="24px" font-style="normal" font-weight="normal" text-decoration="none" x="600" y="660">UNREGISTERED</text><text fill="#eeeeee" stroke="none" font-family="Arial" font-size="24px" font-style="normal" font-weight="normal" text-decoration="none" x="600" y="690">UNREGISTERED</text><text fill="#eeeeee" stroke="none" font-family="Arial" font-size="24px" font-style="normal" font-weight="normal" text-decoration="none" x="600" y="720">UNREGISTERED</text><text fill="#eeeeee" stroke="none" font-family="Arial" font-size="24px" font-style="normal" font-weight="normal" text-decoration="none" x="600" y="750">UNREGISTERED</text><text fill="#eeeeee" stroke="none" font-family="Arial" font-size="24px" font-style="normal" font-weight="normal" text-decoration="none" x="600" y="780">UNREGISTERED</text><text fill="#eeeeee" stroke="none" font-family="Arial" font-size="24px" font-style="normal" font-weight="normal" text-decoration="none" x="600" y="810">UNREGISTERED</text><text fill="#eeeeee" stroke="none" font-family="Arial" font-size="24px" font-style="normal" font-weight="normal" text-decoration="none" x="600" y="840">UNREGISTERED</text><g transform="translate(-286,-126) scale(1,1)"><path fill="#ffffff" stroke="none" d="M 376.5 136 L 431.13720703125 136 Q 447.63720703125 136 447.63720703125 152.5 L 447.63720703125 151.5 Q 447.63720703125 168 431.13720703125 168 L 376.5 168 Q 360 168 360 151.5 L 360 152.5 Q 360 136 376.5 136 Z"/></g><g transform="translate(-286,-126) scale(1,1)"><path fill="none" stroke="#000000" d="M 376.5 136 L 431.13720703125 136 Q 447.63720703125 136 447.63720703125 152.5 L 447.63720703125 151.5 Q 447.63720703125 168 431.13720703125 168 L 376.5 168 Q 360 168 360 151.5 L 360 152.5 Q 360 136 376.5 136 Z" stroke-miterlimit="10"/></g><g transform="translate(-286,-126) scale(1,1)"><g><path fill="none" stroke="none"/><text fill="#000000" stroke="none" font-family="Arial" font-size="13px" font-style="normal" font-weight="normal" text-decoration="none" x="390.091796875" y="158.5">Start</text></g></g><g transform="translate(-286,-126) scale(1,1)"><rect fill="#ffffff" stroke="none" x="368" y="232" width="73.18994140625" height="45"/></g><g transform="translate(-286,-126) scale(1,1)"><path fill="none" stroke="#000000" d="M 368 232 L 441.18994140625 232 L 441.18994140625 277 L 368 277 L 368 232 Z Z" stroke-miterlimit="10"/></g><g transform="translate(-286,-126) scale(1,1)"><g><path fill="none" stroke="none"/><text fill="#000000" stroke="none" font-family="Arial" font-size="13px" font-style="normal" font-weight="normal" text-decoration="none" x="390.50634765625" y="254.5">Main</text><text fill="#000000" stroke="none" font-family="Arial" font-size="13px" font-style="normal" font-weight="normal" text-decoration="none" x="388.33544921875" y="267.5">Menu</text></g></g><g transform="translate(-286,-126) scale(1,1)"><path fill="none" stroke="#000000" d="M 408 168 L 408 232" stroke-miterlimit="10"/></g><g transform="translate(-286,-126) scale(1,1)"><path fill="#000000" stroke="none" d="M 403.790482243984 221.83732514237585 L 408 232 L 412.209517756016 221.83732514237585"/></g><g transform="translate(-286,-126) scale(1,1)"><path fill="none" stroke="#000000" d="M 403.790482243984 221.83732514237585 L 408 232 L 412.209517756016 221.83732514237585 L 403.790482243984 221.83732514237585" stroke-miterlimit="10"/></g><g transform="translate(-286,-126) scale(1,1)"><rect fill="#ffffff" stroke="none" x="368" y="440" width="73.18994140625" height="45"/></g><g transform="translate(-286,-126) scale(1,1)"><path fill="none" stroke="#000000" d="M 368 440 L 441.18994140625 440 L 441.18994140625 485 L 368 485 L 368 440 Z Z" stroke-miterlimit="10"/></g><g transform="translate(-286,-126) scale(1,1)"><g><path fill="none" stroke="none"/><text fill="#000000" stroke="none" font-family="Arial" font-size="13px" font-style="normal" font-weight="normal" text-decoration="none" x="391.2236328125" y="462.5">Boat</text><text fill="#000000" stroke="none" font-family="Arial" font-size="13px" font-style="normal" font-weight="normal" text-decoration="none" x="386.529541015625" y="475.5">Select</text></g></g><g transform="translate(-286,-126) scale(1,1)"><rect fill="#ffffff" stroke="none" x="528" y="448" width="73.18994140625" height="32"/></g><g transform="translate(-286,-126) scale(1,1)"><path fill="none" stroke="#000000" d="M 528 448 L 601.18994140625 448 L 601.18994140625 480 L 528 480 L 528 448 Z Z" stroke-miterlimit="10"/></g><g transform="translate(-286,-126) scale(1,1)"><g><path fill="none" stroke="none"/><text fill="#000000" stroke="none" font-family="Arial" font-size="13px" font-style="normal" font-weight="normal" text-decoration="none" x="548.3291015625" y="470.5">Leg 1</text></g></g><g transform="translate(-286,-126) scale(1,1)"><path fill="none" stroke="#000000" d="M 441 464 L 528 464" stroke-miterlimit="10"/></g><g transform="translate(-286,-126) scale(1,1)"><path fill="#000000" stroke="none" d="M 517.8373251423759 468.209517756016 L 528 464 L 517.8373251423758 459.790482243984"/></g><g transform="translate(-286,-126) scale(1,1)"><path fill="none" stroke="#000000" d="M 517.8373251423759 468.209517756016 L 528 464 L 517.8373251423758 459.790482243984 L 517.8373251423759 468.209517756016" stroke-miterlimit="10"/></g><g transform="translate(-286,-126) scale(1,1)"><path fill="#ffffff" stroke="none" d="M 344 777.5 L 400.58447265625 752 L 457.1689453125 777.5 L 400.58447265625 803 L 344 777.5"/></g><g transform="translate(-286,-126) scale(1,1)"><path fill="none" stroke="#000000" d="M 344 777.5 L 400.58447265625 752 L 457.1689453125 777.5 L 400.58447265625 803 L 344 777.5 L 344 777.5" stroke-miterlimit="10"/></g><g transform="translate(-286,-126) scale(1,1)"><g><path fill="none" stroke="none"/><text fill="#000000" stroke="none" font-family="Arial" font-size="13px" font-style="normal" font-weight="normal" text-decoration="none" x="380.3544921875" y="777.5">Qualify</text><text fill="#000000" stroke="none" font-family="Arial" font-size="13px" font-style="normal" font-weight="normal" text-decoration="none" x="373.489501953125" y="790.5">for Final?</text></g></g><g transform="translate(-286,-126) scale(1,1)"><rect fill="#ffffff" stroke="none" x="360" y="864" width="73.18994140625" height="45"/></g><g transform="translate(-286,-126) scale(1,1)"><path fill="none" stroke="#000000" d="M 360 864 L 433.18994140625 864 L 433.18994140625 909 L 360 909 L 360 864 Z Z" stroke-miterlimit="10"/></g><g transform="translate(-286,-126) scale(1,1)"><g><path fill="none" stroke="none"/><text fill="#000000" stroke="none" font-family="Arial" font-size="13px" font-style="normal" font-weight="normal" text-decoration="none" x="382.50634765625" y="886.5">Final</text><text fill="#000000" stroke="none" font-family="Arial" font-size="13px" font-style="normal" font-weight="normal" text-decoration="none" x="377.44091796875" y="899.5">Round</text></g></g><g transform="translate(-286,-126) scale(1,1)"><path fill="none" stroke="#000000" d="M 400 803 L 400 864" stroke-miterlimit="10"/></g><g transform="translate(-286,-126) scale(1,1)"><path fill="#000000" stroke="none" d="M 395.790482243984 853.8373251423759 L 400 864 L 404.209517756016 853.8373251423759"/></g><g transform="translate(-286,-126) scale(1,1)"><path fill="none" stroke="#000000" d="M 395.790482243984 853.8373251423759 L 400 864 L 404.209517756016 853.8373251423759 L 395.790482243984 853.8373251423759" stroke-miterlimit="10"/></g><g transform="translate(-286,-126) scale(1,1)"><g><path fill="none" stroke="none"/><text fill="#000000" stroke="none" font-family="Arial" font-size="13px" font-style="normal" font-weight="normal" text-decoration="none" x="407.5" y="820.5">Yes</text></g></g><g transform="translate(-286,-126) scale(1,1)"><rect fill="#ffffff" stroke="none" x="368" y="536" width="73.18994140625" height="45"/></g><g transform="translate(-286,-126) scale(1,1)"><path fill="none" stroke="#000000" d="M 368 536 L 441.18994140625 536 L 441.18994140625 581 L 368 581 L 368 536 Z Z" stroke-miterlimit="10"/></g><g transform="translate(-286,-126) scale(1,1)"><g><path fill="none" stroke="none"/><text fill="#000000" stroke="none" font-family="Arial" font-size="13px" font-style="normal" font-weight="normal" text-decoration="none" x="386.89453125" y="558.5">Game</text><text fill="#000000" stroke="none" font-family="Arial" font-size="13px" font-style="normal" font-weight="normal" text-decoration="none" x="390.509521484375" y="571.5">Over</text></g></g><g transform="translate(-286,-126) scale(1,1)"><path fill="none" stroke="#000000" d="M 400 752 L 400 581" stroke-miterlimit="10"/></g><g transform="translate(-286,-126) scale(1,1)"><path fill="#000000" stroke="none" d="M 404.209517756016 591.1626748576241 L 400 581 L 395.790482243984 591.1626748576241"/></g><g transform="translate(-286,-126) scale(1,1)"><path fill="none" stroke="#000000" d="M 404.209517756016 591.1626748576241 L 400 581 L 395.790482243984 591.1626748576241 L 404.209517756016 591.1626748576241" stroke-miterlimit="10"/></g><g transform="translate(-286,-126) scale(1,1)"><g><path fill="none" stroke="none"/><text fill="#000000" stroke="none" font-family="Arial" font-size="13px" font-style="normal" font-weight="normal" text-decoration="none" x="406.5" y="719.5">No</text></g></g><g transform="translate(-286,-126) scale(1,1)"><rect fill="#ffffff" stroke="none" x="360" y="944" width="73.18994140625" height="32"/></g><g transform="translate(-286,-126) scale(1,1)"><path fill="none" stroke="#000000" d="M 360 944 L 433.18994140625 944 L 433.18994140625 976 L 360 976 L 360 944 Z Z" stroke-miterlimit="10"/></g><g transform="translate(-286,-126) scale(1,1)"><g><path fill="none" stroke="none"/><text fill="#000000" stroke="none" font-family="Arial" font-size="13px" font-style="normal" font-weight="normal" text-decoration="none" x="374.555908203125" y="966.5">Podium</text></g></g><g transform="translate(-286,-126) scale(1,1)"><path fill="none" stroke="#000000" d="M 396 909 L 396 944" stroke-miterlimit="10"/></g><g transform="translate(-286,-126) scale(1,1)"><path fill="#000000" stroke="none" d="M 391.790482243984 933.8373251423759 L 396 944 L 400.209517756016 933.8373251423759"/></g><g transform="translate(-286,-126) scale(1,1)"><path fill="none" stroke="#000000" d="M 391.790482243984 933.8373251423759 L 396 944 L 400.209517756016 933.8373251423759 L 391.790482243984 933.8373251423759" stroke-miterlimit="10"/></g><g transform="translate(-286,-126) scale(1,1)"><rect fill="#ffffff" stroke="none" x="816" y="448" width="73.18994140625" height="32"/></g><g transform="translate(-286,-126) scale(1,1)"><path fill="none" stroke="#000000" d="M 816 448 L 889.18994140625 448 L 889.18994140625 480 L 816 480 L 816 448 Z Z" stroke-miterlimit="10"/></g><g transform="translate(-286,-126) scale(1,1)"><g><path fill="none" stroke="none"/><text fill="#000000" stroke="none" font-family="Arial" font-size="13px" font-style="normal" font-weight="normal" text-decoration="none" x="836.3291015625" y="470.5">Leg 2</text></g></g><g transform="translate(-286,-126) scale(1,1)"><rect fill="#ffffff" stroke="none" x="672" y="760" width="73.18994140625" height="32"/></g><g transform="translate(-286,-126) scale(1,1)"><path fill="none" stroke="#000000" d="M 672 760 L 745.18994140625 760 L 745.18994140625 792 L 672 792 L 672 760 Z Z" stroke-miterlimit="10"/></g><g transform="translate(-286,-126) scale(1,1)"><g><path fill="none" stroke="none"/><text fill="#000000" stroke="none" font-family="Arial" font-size="13px" font-style="normal" font-weight="normal" text-decoration="none" x="692.3291015625" y="782.5">Leg 3</text></g></g><g transform="translate(-286,-126) scale(1,1)"><path fill="#ffffff" stroke="none" d="M 656 558.5 L 712.58447265625 520 L 769.1689453125 558.5 L 712.58447265625 597 L 656 558.5"/></g><g transform="translate(-286,-126) scale(1,1)"><path fill="none" stroke="#000000" d="M 656 558.5 L 712.58447265625 520 L 769.1689453125 558.5 L 712.58447265625 597 L 656 558.5 L 656 558.5" stroke-miterlimit="10"/></g><g transform="translate(-286,-126) scale(1,1)"><g><path fill="none" stroke="none"/><text fill="#000000" stroke="none" font-family="Arial" font-size="13px" font-style="normal" font-weight="normal" text-decoration="none" x="690.54541015625" y="552">Did you</text><text fill="#000000" stroke="none" font-family="Arial" font-size="13px" font-style="normal" font-weight="normal" text-decoration="none" x="697.410400390625" y="565">finish</text><text fill="#000000" stroke="none" font-family="Arial" font-size="13px" font-style="normal" font-weight="normal" text-decoration="none" x="700.29541015625" y="578">leg?</text></g></g><g transform="translate(-286,-126) scale(1,1)"><path fill="none" stroke="#000000" d="M 852 480 L 852 536" stroke-miterlimit="10"/></g><g transform="translate(-286,-126) scale(1,1)"><path fill="#000000" stroke="none" d="M 847.790482243984 525.8373251423759 L 852 536 L 856.209517756016 525.8373251423759"/></g><g transform="translate(-286,-126) scale(1,1)"><path fill="none" stroke="#000000" d="M 847.790482243984 525.8373251423759 L 852 536 L 856.209517756016 525.8373251423759 L 847.790482243984 525.8373251423759" stroke-miterlimit="10"/></g><g transform="translate(-286,-126) scale(1,1)"><path fill="none" stroke="#000000" d="M 712 597 L 712 648" stroke-miterlimit="10"/></g><g transform="translate(-286,-126) scale(1,1)"><path fill="#000000" stroke="none" d="M 707.790482243984 637.8373251423759 L 712 648 L 716.209517756016 637.8373251423759"/></g><g transform="translate(-286,-126) scale(1,1)"><path fill="none" stroke="#000000" d="M 707.790482243984 637.8373251423759 L 712 648 L 716.209517756016 637.8373251423759 L 707.790482243984 637.8373251423759" stroke-miterlimit="10"/></g><g transform="translate(-286,-126) scale(1,1)"><g><path fill="none" stroke="none"/><text fill="#000000" stroke="none" font-family="Arial" font-size="13px" font-style="normal" font-weight="normal" text-decoration="none" x="715.5" y="627.5">Yes</text></g></g><g transform="translate(-286,-126) scale(1,1)"><path fill="none" stroke="#000000" d="M 656 560 L 441 560" stroke-miterlimit="10"/></g><g transform="translate(-286,-126) scale(1,1)"><path fill="#000000" stroke="none" d="M 451.16267485762415 555.790482243984 L 441 560 L 451.16267485762415 564.209517756016"/></g><g transform="translate(-286,-126) scale(1,1)"><path fill="none" stroke="#000000" d="M 451.16267485762415 555.790482243984 L 441 560 L 451.16267485762415 564.209517756016 L 451.16267485762415 555.790482243984" stroke-miterlimit="10"/></g><g transform="translate(-286,-126) scale(1,1)"><g><path fill="none" stroke="none"/><text fill="#000000" stroke="none" font-family="Arial" font-size="13px" font-style="normal" font-weight="normal" text-decoration="none" x="522.5" y="582.5">No</text></g></g><g transform="translate(-286,-126) scale(1,1)"><path fill="#ffffff" stroke="none" d="M 512 774.5 L 568.58447265625 736 L 625.1689453125 774.5 L 568.58447265625 813 L 512 774.5"/></g><g transform="translate(-286,-126) scale(1,1)"><path fill="none" stroke="#000000" d="M 512 774.5 L 568.58447265625 736 L 625.1689453125 774.5 L 568.58447265625 813 L 512 774.5 L 512 774.5" stroke-miterlimit="10"/></g><g transform="translate(-286,-126) scale(1,1)"><g><path fill="none" stroke="none"/><text fill="#000000" stroke="none" font-family="Arial" font-size="13px" font-style="normal" font-weight="normal" text-decoration="none" x="546.54541015625" y="768">Did you</text><text fill="#000000" stroke="none" font-family="Arial" font-size="13px" font-style="normal" font-weight="normal" text-decoration="none" x="553.410400390625" y="781">finish</text><text fill="#000000" stroke="none" font-family="Arial" font-size="13px" font-style="normal" font-weight="normal" text-decoration="none" x="556.29541015625" y="794">leg?</text></g></g><g transform="translate(-286,-126) scale(1,1)"><path fill="none" stroke="#000000" d="M 672 776 L 625 776" stroke-miterlimit="10"/></g><g transform="translate(-286,-126) scale(1,1)"><path fill="#000000" stroke="none" d="M 635.1626748576241 771.790482243984 L 625 776 L 635.1626748576241 780.209517756016"/></g><g transform="translate(-286,-126) scale(1,1)"><path fill="none" stroke="#000000" d="M 635.1626748576241 771.790482243984 L 625 776 L 635.1626748576241 780.209517756016 L 635.1626748576241 771.790482243984" stroke-miterlimit="10"/></g><g transform="translate(-286,-126) scale(1,1)"><path fill="none" stroke="#000000" d="M 512 776 L 457 776" stroke-miterlimit="10"/></g><g transform="translate(-286,-126) scale(1,1)"><path fill="#000000" stroke="none" d="M 467.16267485762415 771.790482243984 L 457 776 L 467.16267485762415 780.209517756016"/></g><g transform="translate(-286,-126) scale(1,1)"><path fill="none" stroke="#000000" d="M 467.16267485762415 771.790482243984 L 457 776 L 467.16267485762415 780.209517756016 L 467.16267485762415 771.790482243984" stroke-miterlimit="10"/></g><g transform="translate(-286,-126) scale(1,1)"><g><path fill="none" stroke="none"/><text fill="#000000" stroke="none" font-family="Arial" font-size="13px" font-style="normal" font-weight="normal" text-decoration="none" x="472.5" y="797.5">Yes</text></g></g><g transform="translate(-286,-126) scale(1,1)"><path fill="none" stroke="#000000" d="M 568 736 L 568 560 L 441 560" stroke-miterlimit="10"/></g><g transform="translate(-286,-126) scale(1,1)"><path fill="#000000" stroke="none" d="M 451.16267485762415 555.790482243984 L 441 560 L 451.16267485762415 564.209517756016"/></g><g transform="translate(-286,-126) scale(1,1)"><path fill="none" stroke="#000000" d="M 451.16267485762415 555.790482243984 L 441 560 L 451.16267485762415 564.209517756016 L 451.16267485762415 555.790482243984" stroke-miterlimit="10"/></g><g transform="translate(-286,-126) scale(1,1)"><g><path fill="none" stroke="none"/><text fill="#000000" stroke="none" font-family="Arial" font-size="13px" font-style="normal" font-weight="normal" text-decoration="none" x="542.5" y="686.5">No</text></g></g><g transform="translate(-286,-126) scale(1,1)"><path fill="none" stroke="#000000" d="M 360 960 L 304 960 M 304 960 A 8 8 0 0 1 296 952 L 296 264 M 296 264 A 8 8 0 0 1 304 256 L 368 256" stroke-miterlimit="10"/></g><g transform="translate(-286,-126) scale(1,1)"><path fill="#000000" stroke="none" d="M 357.83732514237585 260.209517756016 L 368 256 L 357.83732514237585 251.790482243984"/></g><g transform="translate(-286,-126) scale(1,1)"><path fill="none" stroke="#000000" d="M 357.83732514237585 260.209517756016 L 368 256 L 357.83732514237585 251.790482243984 L 357.83732514237585 260.209517756016" stroke-miterlimit="10"/></g><g transform="translate(-286,-126) scale(1,1)"><path fill="none" stroke="#000000" d="M 368 560 L 304 560 M 304 560 A 8 8 0 0 1 296 552 L 296 264 M 296 264 A 8 8 0 0 1 304 256 L 368 256" stroke-miterlimit="10"/></g><g transform="translate(-286,-126) scale(1,1)"><path fill="#000000" stroke="none" d="M 357.83732514237585 260.209517756016 L 368 256 L 357.83732514237585 251.790482243984"/></g><g transform="translate(-286,-126) scale(1,1)"><path fill="none" stroke="#000000" d="M 357.83732514237585 260.209517756016 L 368 256 L 357.83732514237585 251.790482243984 L 357.83732514237585 260.209517756016" stroke-miterlimit="10"/></g><g transform="translate(-286,-126) scale(1,1)"><rect fill="#ffffff" stroke="none" x="368" y="336" width="73.18994140625" height="45"/></g><g transform="translate(-286,-126) scale(1,1)"><path fill="none" stroke="#000000" d="M 368 336 L 441.18994140625 336 L 441.18994140625 381 L 368 381 L 368 336 Z Z" stroke-miterlimit="10"/></g><g transform="translate(-286,-126) scale(1,1)"><g><path fill="none" stroke="none"/><text fill="#000000" stroke="none" font-family="Arial" font-size="13px" font-style="normal" font-weight="normal" text-decoration="none" x="383.641357421875" y="358.5">Control</text><text fill="#000000" stroke="none" font-family="Arial" font-size="13px" font-style="normal" font-weight="normal" text-decoration="none" x="384" y="371.5">Screen</text></g></g><g transform="translate(-286,-126) scale(1,1)"><path fill="none" stroke="#000000" d="M 404 277 L 404 336" stroke-miterlimit="10"/></g><g transform="translate(-286,-126) scale(1,1)"><path fill="#000000" stroke="none" d="M 399.790482243984 325.83732514237585 L 404 336 L 408.209517756016 325.83732514237585"/></g><g transform="translate(-286,-126) scale(1,1)"><path fill="none" stroke="#000000" d="M 399.790482243984 325.83732514237585 L 404 336 L 408.209517756016 325.83732514237585 L 399.790482243984 325.83732514237585" stroke-miterlimit="10"/></g><g transform="translate(-286,-126) scale(1,1)"><path fill="none" stroke="#000000" d="M 408 381 L 408 440" stroke-miterlimit="10"/></g><g transform="translate(-286,-126) scale(1,1)"><path fill="#000000" stroke="none" d="M 403.790482243984 429.83732514237585 L 408 440 L 412.209517756016 429.83732514237585"/></g><g transform="translate(-286,-126) scale(1,1)"><path fill="none" stroke="#000000" d="M 403.790482243984 429.83732514237585 L 408 440 L 412.209517756016 429.83732514237585 L 403.790482243984 429.83732514237585" stroke-miterlimit="10"/></g><g transform="translate(-286,-126) scale(1,1)"><path fill="none" stroke="#000000" d="M 601 464 L 664 464" stroke-miterlimit="10"/></g><g transform="translate(-286,-126) scale(1,1)"><path fill="#000000" stroke="none" d="M 653.8373251423759 468.209517756016 L 664 464 L 653.8373251423758 459.790482243984"/></g><g transform="translate(-286,-126) scale(1,1)"><path fill="none" stroke="#000000" d="M 653.8373251423759 468.209517756016 L 664 464 L 653.8373251423758 459.790482243984 L 653.8373251423759 468.209517756016" stroke-miterlimit="10"/></g><g transform="translate(-286,-126) scale(1,1)"><rect fill="#ffffff" stroke="none" x="672" y="648" width="73.18994140625" height="58"/></g><g transform="translate(-286,-126) scale(1,1)"><path fill="none" stroke="#000000" d="M 672 648 L 745.18994140625 648 L 745.18994140625 706 L 672 706 L 672 648 Z Z" stroke-miterlimit="10"/></g><g transform="translate(-286,-126) scale(1,1)"><g><path fill="none" stroke="none"/><text fill="#000000" stroke="none" font-family="Arial" font-size="13px" font-style="normal" font-weight="normal" text-decoration="none" x="692.33544921875" y="670.5">Show</text><text fill="#000000" stroke="none" font-family="Arial" font-size="13px" font-style="normal" font-weight="normal" text-decoration="none" x="699.9208984375" y="683.5">leg</text><text fill="#000000" stroke="none" font-family="Arial" font-size="13px" font-style="normal" font-weight="normal" text-decoration="none" x="689.450439453125" y="696.5">scores</text></g></g><g transform="translate(-286,-126) scale(1,1)"><path fill="none" stroke="#000000" d="M 712 706 L 712 760" stroke-miterlimit="10"/></g><g transform="translate(-286,-126) scale(1,1)"><path fill="#000000" stroke="none" d="M 707.790482243984 749.8373251423759 L 712 760 L 716.209517756016 749.8373251423759"/></g><g transform="translate(-286,-126) scale(1,1)"><path fill="none" stroke="#000000" d="M 707.790482243984 749.8373251423759 L 712 760 L 716.209517756016 749.8373251423759 L 707.790482243984 749.8373251423759" stroke-miterlimit="10"/></g><g transform="translate(-286,-126) scale(1,1)"><rect fill="#ffffff" stroke="none" x="664" y="440" width="73.18994140625" height="58"/></g><g transform="translate(-286,-126) scale(1,1)"><path fill="none" stroke="#000000" d="M 664 440 L 737.18994140625 440 L 737.18994140625 498 L 664 498 L 664 440 Z Z" stroke-miterlimit="10"/></g><g transform="translate(-286,-126) scale(1,1)"><g><path fill="none" stroke="none"/><text fill="#000000" stroke="none" font-family="Arial" font-size="13px" font-style="normal" font-weight="normal" text-decoration="none" x="684.33544921875" y="462.5">Show</text><text fill="#000000" stroke="none" font-family="Arial" font-size="13px" font-style="normal" font-weight="normal" text-decoration="none" x="691.9208984375" y="475.5">leg</text><text fill="#000000" stroke="none" font-family="Arial" font-size="13px" font-style="normal" font-weight="normal" text-decoration="none" x="681.450439453125" y="488.5">scores</text></g></g><g transform="translate(-286,-126) scale(1,1)"><rect fill="#ffffff" stroke="none" x="816" y="536" width="73.18994140625" height="58"/></g><g transform="translate(-286,-126) scale(1,1)"><path fill="none" stroke="#000000" d="M 816 536 L 889.18994140625 536 L 889.18994140625 594 L 816 594 L 816 536 Z Z" stroke-miterlimit="10"/></g><g transform="translate(-286,-126) scale(1,1)"><g><path fill="none" stroke="none"/><text fill="#000000" stroke="none" font-family="Arial" font-size="13px" font-style="normal" font-weight="normal" text-decoration="none" x="836.33544921875" y="558.5">Show</text><text fill="#000000" stroke="none" font-family="Arial" font-size="13px" font-style="normal" font-weight="normal" text-decoration="none" x="843.9208984375" y="571.5">leg</text><text fill="#000000" stroke="none" font-family="Arial" font-size="13px" font-style="normal" font-weight="normal" text-decoration="none" x="833.450439453125" y="584.5">scores</text></g></g><g transform="translate(-286,-126) scale(1,1)"><path fill="none" stroke="#000000" d="M 737 464 L 816 464" stroke-miterlimit="10"/></g><g transform="translate(-286,-126) scale(1,1)"><path fill="#000000" stroke="none" d="M 805.8373251423759 468.209517756016 L 816 464 L 805.8373251423758 459.790482243984"/></g><g transform="translate(-286,-126) scale(1,1)"><path fill="none" stroke="#000000" d="M 805.8373251423759 468.209517756016 L 816 464 L 805.8373251423758 459.790482243984 L 805.8373251423759 468.209517756016" stroke-miterlimit="10"/></g><g transform="translate(-286,-126) scale(1,1)"><path fill="none" stroke="#000000" d="M 816 558 L 769 558" stroke-miterlimit="10"/></g><g transform="translate(-286,-126) scale(1,1)"><path fill="#000000" stroke="none" d="M 779.1626748576241 553.790482243984 L 769 558 L 779.1626748576241 562.209517756016"/></g><g transform="translate(-286,-126) scale(1,1)"><path fill="none" stroke="#000000" d="M 779.1626748576241 553.790482243984 L 769 558 L 779.1626748576241 562.209517756016 L 779.1626748576241 553.790482243984" stroke-miterlimit="10"/></g></g></svg>