<svg version="1.1" xmlns="http://www.w3.org/2000/svg" xmlns:xlink="http://www.w3.org/1999/xlink" width="381.1689453125" height="500"><defs/><g><text fill="#eeeeee" stroke="none" font-family="Arial" font-size="24px" font-style="normal" font-weight="normal" text-decoration="none" x="0" y="0">UNREGISTERED</text><text fill="#eeeeee" stroke="none" font-family="Arial" font-size="24px" font-style="normal" font-weight="normal" text-decoration="none" x="0" y="30">UNREGISTERED</text><text fill="#eeeeee" stroke="none" font-family="Arial" font-size="24px" font-style="normal" font-weight="normal" text-decoration="none" x="0" y="60">UNREGISTERED</text><text fill="#eeeeee" stroke="none" font-family="Arial" font-size="24px" font-style="normal" font-weight="normal" text-decoration="none" x="0" y="90">UNREGISTERED</text><text fill="#eeeeee" stroke="none" font-family="Arial" font-size="24px" font-style="normal" font-weight="normal" text-decoration="none" x="0" y="120">UNREGISTERED</text><text fill="#eeeeee" stroke="none" font-family="Arial" font-size="24px" font-style="normal" font-weight="normal" text-decoration="none" x="0" y="150">UNREGISTERED</text><text fill="#eeeeee" stroke="none" font-family="Arial" font-size="24px" font-style="normal" font-weight="normal" text-decoration="none" x="0" y="180">UNREGISTERED</text><text fill="#eeeeee" stroke="none" font-family="Arial" font-size="24px" font-style="normal" font-weight="normal" text-decoration="none" x="0" y="210">UNREGISTERED</text><text fill="#eeeeee" stroke="none" font-family="Arial" font-size="24px" font-style="normal" font-weight="normal" text-decoration="none" x="0" y="240">UNREGISTERED</text><text fill="#eeeeee" stroke="none" font-family="Arial" font-size="24px" font-style="normal" font-weight="normal" text-decoration="none" x="0" y="270">UNREGISTERED</text><text fill="#eeeeee" stroke="none" font-family="Arial" font-size="24px" font-style="normal" font-weight="normal" text-decoration="none" x="0" y="300">UNREGISTERED</text><text fill="#eeeeee" stroke="none" font-family="Arial" font-size="24px" font-style="normal" font-weight="normal" text-decoration="none" x="0" y="330">UNREGISTERED</text><text fill="#eeeeee" stroke="none" font-family="Arial" font-size="24px" font-style="normal" font-weight="normal" text-decoration="none" x="0" y="360">UNREGISTERED</text><text fill="#eeeeee" stroke="none" font-family="Arial" font-size="24px" font-style="normal" font-weight="normal" text-decoration="none" x="0" y="390">UNREGISTERED</text><text fill="#eeeeee" stroke="none" font-family="Arial" font-size="24px" font-style="normal" font-weight="normal" text-decoration="none" x="0" y="420">UNREGISTERED</text><text fill="#eeeeee" stroke="none" font-family="Arial" font-size="24px" font-style="normal" font-weight="normal" text-decoration="none" x="0" y="450">UNREGISTERED</text><text fill="#eeeeee" stroke="none" font-family="Arial" font-size="24px" font-style="normal" font-weight="normal" text-decoration="none" x="0" y="480">UNREGISTERED</text><text fill="#eeeeee" stroke="none" font-family="Arial" font-size="24px" font-style="normal" font-weight="normal" text-decoration="none" x="200" y="0">UNREGISTERED</text><text fill="#eeeeee" stroke="none" font-family="Arial" font-size="24px" font-style="normal" font-weight="normal" text-decoration="none" x="200" y="30">UNREGISTERED</text><text fill="#eeeeee" stroke="none" font-family="Arial" font-size="24px" font-style="normal" font-weight="normal" text-decoration="none" x="200" y="60">UNREGISTERED</text><text fill="#eeeeee" stroke="none" font-family="Arial" font-size="24px" font-style="normal" font-weight="normal" text-decoration="none" x="200" y="90">UNREGISTERED</text><text fill="#eeeeee" stroke="none" font-family="Arial" font-size="24px" font-style="normal" font-weight="normal" text-decoration="none" x="200" y="120">UNREGISTERED</text><text fill="#eeeeee" stroke="none" font-family="Arial" font-size="24px" font-style="normal" font-weight="normal" text-decoration="none" x="200" y="150">UNREGISTERED</text><text fill="#eeeeee" stroke="none" font-family="Arial" font-size="24px" font-style="normal" font-weight="normal" text-decoration="none" x="200" y="180">UNREGISTERED</text><text fill="#eeeeee" stroke="none" font-family="Arial" font-size="24px" font-style="normal" font-weight="normal" text-decoration="none" x="200" y="210">UNREGISTERED</text><text fill="#eeeeee" stroke="none" font-family="Arial" font-size="24px" font-style="normal" font-weight="normal" text-decoration="none" x="200" y="240">UNREGISTERED</text><text fill="#eeeeee" stroke="none" font-family="Arial" font-size="24px" font-style="normal" font-weight="normal" text-decoration="none" x="200" y="270">UNREGISTERED</text><text fill="#eeeeee" stroke="none" font-family="Arial" font-size="24px" font-style="normal" font-weight="normal" text-decoration="none" x="200" y="300">UNREGISTERED</text><text fill="#eeeeee" stroke="none" font-family="Arial" font-size="24px" font-style="normal" font-weight="normal" text-decoration="none" x="200" y="330">UNREGISTERED</text><text fill="#eeeeee" stroke="none" font-family="Arial" font-size="24px" font-style="normal" font-weight="normal" text-decoration="none" x="200" y="360">UNREGISTERED</text><text fill="#eeeeee" stroke="none" font-family="Arial" font-size="24px" font-style="normal" font-weight="normal" text-decoration="none" x="200" y="390">UNREGISTERED</text><text fill="#eeeeee" stroke="none" font-family="Arial" font-size="24px" font-style="normal" font-weight="normal" text-decoration="none" x="200" y="420">UNREGISTERED</text><text fill="#eeeeee" stroke="none" font-family="Arial" font-size="24px" font-style="normal" font-weight="normal" text-decoration="none" x="200" y="450">UNREGISTERED</text><text fill="#eeeeee" stroke="none" font-family="Arial" font-size="24px" font-style="normal" font-weight="normal" text-decoration="none" x="200" y="480">UNREGISTERED</text><g transform="translate(-238,-214) scale(1,1)"><path fill="#ffffff" stroke="none" d="M 408.5 224 L 463.13720703125 224 Q 479.63720703125 224 479.63720703125 240.5 L 479.63720703125 239.5 Q 479.63720703125 256 463.13720703125 256 L 408.5 256 Q 392 256 392 239.5 L 392 240.5 Q 392 224 408.5 224 Z"/></g><g transform="translate(-238,-214) scale(1,1)"><path fill="none" stroke="#000000" d="M 408.5 224 L 463.13720703125 224 Q 479.63720703125 224 479.63720703125 240.5 L 479.63720703125 239.5 Q 479.63720703125 256 463.13720703125 256 L 408.5 256 Q 392 256 392 239.5 L 392 240.5 Q 392 224 408.5 224 Z" stroke-miterlimit="10"/></g><g transform="translate(-238,-214) scale(1,1)"><g><path fill="none" stroke="none"/><text fill="#000000" stroke="none" font-family="Arial" font-size="13px" font-style="normal" font-weight="normal" text-decoration="none" x="409.44091796875" y="246.5">Start Leg</text></g></g><g transform="translate(-238,-214) scale(1,1)"><path fill="#ffffff" stroke="none" d="M 384 425.5 L 440.58447265625 400 L 497.1689453125 425.5 L 440.58447265625 451 L 384 425.5"/></g><g transform="translate(-238,-214) scale(1,1)"><path fill="none" stroke="#000000" d="M 384 425.5 L 440.58447265625 400 L 497.1689453125 425.5 L 440.58447265625 451 L 384 425.5 L 384 425.5" stroke-miterlimit="10"/></g><g transform="translate(-238,-214) scale(1,1)"><g><path fill="none" stroke="none"/><text fill="#000000" stroke="none" font-family="Arial" font-size="13px" font-style="normal" font-weight="normal" text-decoration="none" x="418.18359375" y="425.5">Are you</text><text fill="#000000" stroke="none" font-family="Arial" font-size="13px" font-style="normal" font-weight="normal" text-decoration="none" x="417.8154296875" y="438.5">in lane?</text></g></g><g transform="translate(-238,-214) scale(1,1)"><rect fill="#ffffff" stroke="none" x="248" y="408" width="76.8017578125" height="45"/></g><g transform="translate(-238,-214) scale(1,1)"><path fill="none" stroke="#000000" d="M 248 408 L 324.8017578125 408 L 324.8017578125 453 L 248 453 L 248 408 Z Z" stroke-miterlimit="10"/></g><g transform="translate(-238,-214) scale(1,1)"><g><path fill="none" stroke="none"/><text fill="#000000" stroke="none" font-family="Arial" font-size="13px" font-style="normal" font-weight="normal" text-decoration="none" x="257.5" y="430.5">Increment</text><text fill="#000000" stroke="none" font-family="Arial" font-size="13px" font-style="normal" font-weight="normal" text-decoration="none" x="265.44091796875" y="443.5">penalty</text></g></g><g transform="translate(-238,-214) scale(1,1)"><path fill="#ffffff" stroke="none" d="M 496 566.5 L 552.58447265625 528 L 609.1689453125 566.5 L 552.58447265625 605 L 496 566.5"/></g><g transform="translate(-238,-214) scale(1,1)"><path fill="none" stroke="#000000" d="M 496 566.5 L 552.58447265625 528 L 609.1689453125 566.5 L 552.58447265625 605 L 496 566.5 L 496 566.5" stroke-miterlimit="10"/></g><g transform="translate(-238,-214) scale(1,1)"><g><path fill="none" stroke="none"/><text fill="#000000" stroke="none" font-family="Arial" font-size="13px" font-style="normal" font-weight="normal" text-decoration="none" x="530.54541015625" y="560">Did you</text><text fill="#000000" stroke="none" font-family="Arial" font-size="13px" font-style="normal" font-weight="normal" text-decoration="none" x="537.410400390625" y="573">finish</text><text fill="#000000" stroke="none" font-family="Arial" font-size="13px" font-style="normal" font-weight="normal" text-decoration="none" x="538.12451171875" y="586">Leg?</text></g></g><g transform="translate(-238,-214) scale(1,1)"><path fill="#ffffff" stroke="none" d="M 520.5 672 L 575.13720703125 672 Q 591.63720703125 672 591.63720703125 688.5 L 591.63720703125 687.5 Q 591.63720703125 704 575.13720703125 704 L 520.5 704 Q 504 704 504 687.5 L 504 688.5 Q 504 672 520.5 672 Z"/></g><g transform="translate(-238,-214) scale(1,1)"><path fill="none" stroke="#000000" d="M 520.5 672 L 575.13720703125 672 Q 591.63720703125 672 591.63720703125 688.5 L 591.63720703125 687.5 Q 591.63720703125 704 575.13720703125 704 L 520.5 704 Q 504 704 504 687.5 L 504 688.5 Q 504 672 520.5 672 Z" stroke-miterlimit="10"/></g><g transform="translate(-238,-214) scale(1,1)"><g><path fill="none" stroke="none"/><text fill="#000000" stroke="none" font-family="Arial" font-size="13px" font-style="normal" font-weight="normal" text-decoration="none" x="530.47998046875" y="694.5">Finish</text></g></g><g transform="translate(-238,-214) scale(1,1)"><path fill="none" stroke="#000000" d="M 552 605 L 552 672" stroke-miterlimit="10"/></g><g transform="translate(-238,-214) scale(1,1)"><path fill="#000000" stroke="none" d="M 547.790482243984 661.8373251423759 L 552 672 L 556.209517756016 661.8373251423759"/></g><g transform="translate(-238,-214) scale(1,1)"><path fill="none" stroke="#000000" d="M 547.790482243984 661.8373251423759 L 552 672 L 556.209517756016 661.8373251423759 L 547.790482243984 661.8373251423759" stroke-miterlimit="10"/></g><g transform="translate(-238,-214) scale(1,1)"><path fill="none" stroke="#000000" d="M 497 424 L 542 424 M 542 424 A 8 8 0 0 1 550 432 L 550 528" stroke-miterlimit="10"/></g><g transform="translate(-238,-214) scale(1,1)"><path fill="#000000" stroke="none" d="M 545.790482243984 517.8373251423759 L 550 528 L 554.209517756016 517.8373251423759"/></g><g transform="translate(-238,-214) scale(1,1)"><path fill="none" stroke="#000000" d="M 545.790482243984 517.8373251423759 L 550 528 L 554.209517756016 517.8373251423759 L 545.790482243984 517.8373251423759" stroke-miterlimit="10"/></g><g transform="translate(-238,-214) scale(1,1)"><g><path fill="none" stroke="none"/><text fill="#000000" stroke="none" font-family="Arial" font-size="13px" font-style="normal" font-weight="normal" text-decoration="none" x="511.5" y="460.5">Yes</text></g></g><g transform="translate(-238,-214) scale(1,1)"><path fill="none" stroke="#000000" d="M 384 424 L 325 424" stroke-miterlimit="10"/></g><g transform="translate(-238,-214) scale(1,1)"><path fill="#000000" stroke="none" d="M 335.16267485762415 419.790482243984 L 325 424 L 335.16267485762415 428.209517756016"/></g><g transform="translate(-238,-214) scale(1,1)"><path fill="none" stroke="#000000" d="M 335.16267485762415 419.790482243984 L 325 424 L 335.16267485762415 428.209517756016 L 335.16267485762415 419.790482243984" stroke-miterlimit="10"/></g><g transform="translate(-238,-214) scale(1,1)"><g><path fill="none" stroke="none"/><text fill="#000000" stroke="none" font-family="Arial" font-size="13px" font-style="normal" font-weight="normal" text-decoration="none" x="381.5" y="444.5">No</text></g></g><g transform="translate(-238,-214) scale(1,1)"><path fill="none" stroke="#000000" d="M 286 408 L 286 376 M 286 376 A 8 8 0 0 1 294 368 L 432 368 M 432 368 A 8 8 0 0 1 440 376 L 440 400" stroke-miterlimit="10"/></g><g transform="translate(-238,-214) scale(1,1)"><path fill="#000000" stroke="none" d="M 435.790482243984 389.83732514237585 L 440 400 L 444.209517756016 389.83732514237585"/></g><g transform="translate(-238,-214) scale(1,1)"><path fill="none" stroke="#000000" d="M 435.790482243984 389.83732514237585 L 440 400 L 444.209517756016 389.83732514237585 L 435.790482243984 389.83732514237585" stroke-miterlimit="10"/></g><g transform="translate(-238,-214) scale(1,1)"><path fill="none" stroke="#000000" d="M 440 256 L 440 400" stroke-miterlimit="10"/></g><g transform="translate(-238,-214) scale(1,1)"><path fill="#000000" stroke="none" d="M 435.790482243984 389.83732514237585 L 440 400 L 444.209517756016 389.83732514237585"/></g><g transform="translate(-238,-214) scale(1,1)"><path fill="none" stroke="#000000" d="M 435.790482243984 389.83732514237585 L 440 400 L 444.209517756016 389.83732514237585 L 435.790482243984 389.83732514237585" stroke-miterlimit="10"/></g><g transform="translate(-238,-214) scale(1,1)"><path fill="none" stroke="#000000" d="M 496 568 L 448 568 M 448 568 A 8 8 0 0 1 440 560 L 440 451" stroke-miterlimit="10"/></g><g transform="translate(-238,-214) scale(1,1)"><path fill="#000000" stroke="none" d="M 444.209517756016 461.16267485762415 L 440 451 L 435.790482243984 461.16267485762415"/></g><g transform="translate(-238,-214) scale(1,1)"><path fill="none" stroke="#000000" d="M 444.209517756016 461.16267485762415 L 440 451 L 435.790482243984 461.16267485762415 L 444.209517756016 461.16267485762415" stroke-miterlimit="10"/></g><g transform="translate(-238,-214) scale(1,1)"><g><path fill="none" stroke="none"/><text fill="#000000" stroke="none" font-family="Arial" font-size="13px" font-style="normal" font-weight="normal" text-decoration="none" x="446.5" y="556.5">No</text></g></g></g></svg>