<svg version="1.1" xmlns="http://www.w3.org/2000/svg" xmlns:xlink="http://www.w3.org/1999/xlink" width="1009.400390625" height="415"><defs/><g><text fill="#eeeeee" stroke="none" font-family="Arial" font-size="24px" font-style="normal" font-weight="normal" text-decoration="none" x="0" y="0">UNREGISTERED</text><text fill="#eeeeee" stroke="none" font-family="Arial" font-size="24px" font-style="normal" font-weight="normal" text-decoration="none" x="0" y="30">UNREGISTERED</text><text fill="#eeeeee" stroke="none" font-family="Arial" font-size="24px" font-style="normal" font-weight="normal" text-decoration="none" x="0" y="60">UNREGISTERED</text><text fill="#eeeeee" stroke="none" font-family="Arial" font-size="24px" font-style="normal" font-weight="normal" text-decoration="none" x="0" y="90">UNREGISTERED</text><text fill="#eeeeee" stroke="none" font-family="Arial" font-size="24px" font-style="normal" font-weight="normal" text-decoration="none" x="0" y="120">UNREGISTERED</text><text fill="#eeeeee" stroke="none" font-family="Arial" font-size="24px" font-style="normal" font-weight="normal" text-decoration="none" x="0" y="150">UNREGISTERED</text><text fill="#eeeeee" stroke="none" font-family="Arial" font-size="24px" font-style="normal" font-weight="normal" text-decoration="none" x="0" y="180">UNREGISTERED</text><text fill="#eeeeee" stroke="none" font-family="Arial" font-size="24px" font-style="normal" font-weight="normal" text-decoration="none" x="0" y="210">UNREGISTERED</text><text fill="#eeeeee" stroke="none" font-family="Arial" font-size="24px" font-style="normal" font-weight="normal" text-decoration="none" x="0" y="240">UNREGISTERED</text><text fill="#eeeeee" stroke="none" font-family="Arial" font-size="24px" font-style="normal" font-weight="normal" text-decoration="none" x="0" y="270">UNREGISTERED</text><text fill="#eeeeee" stroke="none" font-family="Arial" font-size="24px" font-style="normal" font-weight="normal" text-decoration="none" x="0" y="300">UNREGISTERED</text><text fill="#eeeeee" stroke="none" font-family="Arial" font-size="24px" font-style="normal" font-weight="normal" text-decoration="none" x="0" y="330">UNREGISTERED</text><text fill="#eeeeee" stroke="none" font-family="Arial" font-size="24px" font-style="normal" font-weight="normal" text-decoration="none" x="0" y="360">UNREGISTERED</text><text fill="#eeeeee" stroke="none" font-family="Arial" font-size="24px" font-style="normal" font-weight="normal" text-decoration="none" x="0" y="390">UNREGISTERED</text><text fill="#eeeeee" stroke="none" font-family="Arial" font-size="24px" font-style="normal" font-weight="normal" text-decoration="none" x="200" y="0">UNREGISTERED</text><text fill="#eeeeee" stroke="none" font-family="Arial" font-size="24px" font-style="normal" font-weight="normal" text-decoration="none" x="200" y="30">UNREGISTERED</text><text fill="#eeeeee" stroke="none" font-family="Arial" font-size="24px" font-style="normal" font-weight="normal" text-decoration="none" x="200" y="60">UNREGISTERED</text><text fill="#eeeeee" stroke="none" font-family="Arial" font-size="24px" font-style="normal" font-weight="normal" text-decoration="none" x="200" y="90">UNREGISTERED</text><text fill="#eeeeee" stroke="none" font-family="Arial" font-size="24px" font-style="normal" font-weight="normal" text-decoration="none" x="200" y="120">UNREGISTERED</text><text fill="#eeeeee" stroke="none" font-family="Arial" font-size="24px" font-style="normal" font-weight="normal" text-decoration="none" x="200" y="150">UNREGISTERED</text><text fill="#eeeeee" stroke="none" font-family="Arial" font-size="24px" font-style="normal" font-weight="normal" text-decoration="none" x="200" y="180">UNREGISTERED</text><text fill="#eeeeee" stroke="none" font-family="Arial" font-size="24px" font-style="normal" font-weight="normal" text-decoration="none" x="200" y="210">UNREGISTERED</text><text fill="#eeeeee" stroke="none" font-family="Arial" font-size="24px" font-style="normal" font-weight="normal" text-decoration="none" x="200" y="240">UNREGISTERED</text><text fill="#eeeeee" stroke="none" font-family="Arial" font-size="24px" font-style="normal" font-weight="normal" text-decoration="none" x="200" y="270">UNREGISTERED</text><text fill="#eeeeee" stroke="none" font-family="Arial" font-size="24px" font-style="normal" font-weight="normal" text-decoration="none" x="200" y="300">UNREGISTERED</text><text fill="#eeeeee" stroke="none" font-family="Arial" font-size="24px" font-style="normal" font-weight="normal" text-decoration="none" x="200" y="330">UNREGISTERED</text><text fill="#eeeeee" stroke="none" font-family="Arial" font-size="24px" font-style="normal" font-weight="normal" text-decoration="none" x="200" y="360">UNREGISTERED</text><text fill="#eeeeee" stroke="none" font-family="Arial" font-size="24px" font-style="normal" font-weight="normal" text-decoration="none" x="200" y="390">UNREGISTERED</text><text fill="#eeeeee" stroke="none" font-family="Arial" font-size="24px" font-style="normal" font-weight="normal" text-decoration="none" x="400" y="0">UNREGISTERED</text><text fill="#eeeeee" stroke="none" font-family="Arial" font-size="24px" font-style="normal" font-weight="normal" text-decoration="none" x="400" y="30">UNREGISTERED</text><text fill="#eeeeee" stroke="none" font-family="Arial" font-size="24px" font-style="normal" font-weight="normal" text-decoration="none" x="400" y="60">UNREGISTERED</text><text fill="#eeeeee" stroke="none" font-family="Arial" font-size="24px" font-style="normal" font-weight="normal" text-decoration="none" x="400" y="90">UNREGISTERED</text><text fill="#eeeeee" stroke="none" font-family="Arial" font-size="24px" font-style="normal" font-weight="normal" text-decoration="none" x="400" y="120">UNREGISTERED</text><text fill="#eeeeee" stroke="none" font-family="Arial" font-size="24px" font-style="normal" font-weight="normal" text-decoration="none" x="400" y="150">UNREGISTERED</text><text fill="#eeeeee" stroke="none" font-family="Arial" font-size="24px" font-style="normal" font-weight="normal" text-decoration="none" x="400" y="180">UNREGISTERED</text><text fill="#eeeeee" stroke="none" font-family="Arial" font-size="24px" font-style="normal" font-weight="normal" text-decoration="none" x="400" y="210">UNREGISTERED</text><text fill="#eeeeee" stroke="none" font-family="Arial" font-size="24px" font-style="normal" font-weight="normal" text-decoration="none" x="400" y="240">UNREGISTERED</text><text fill="#eeeeee" stroke="none" font-family="Arial" font-size="24px" font-style="normal" font-weight="normal" text-decoration="none" x="400" y="270">UNREGISTERED</text><text fill="#eeeeee" stroke="none" font-family="Arial" font-size="24px" font-style="normal" font-weight="normal" text-decoration="none" x="400" y="300">UNREGISTERED</text><text fill="#eeeeee" stroke="none" font-family="Arial" font-size="24px" font-style="normal" font-weight="normal" text-decoration="none" x="400" y="330">UNREGISTERED</text><text fill="#eeeeee" stroke="none" font-family="Arial" font-size="24px" font-style="normal" font-weight="normal" text-decoration="none" x="400" y="360">UNREGISTERED</text><text fill="#eeeeee" stroke="none" font-family="Arial" font-size="24px" font-style="normal" font-weight="normal" text-decoration="none" x="400" y="390">UNREGISTERED</text><text fill="#eeeeee" stroke="none" font-family="Arial" font-size="24px" font-style="normal" font-weight="normal" text-decoration="none" x="600" y="0">UNREGISTERED</text><text fill="#eeeeee" stroke="none" font-family="Arial" font-size="24px" font-style="normal" font-weight="normal" text-decoration="none" x="600" y="30">UNREGISTERED</text><text fill="#eeeeee" stroke="none" font-family="Arial" font-size="24px" font-style="normal" font-weight="normal" text-decoration="none" x="600" y="60">UNREGISTERED</text><text fill="#eeeeee" stroke="none" font-family="Arial" font-size="24px" font-style="normal" font-weight="normal" text-decoration="none" x="600" y="90">UNREGISTERED</text><text fill="#eeeeee" stroke="none" font-family="Arial" font-size="24px" font-style="normal" font-weight="normal" text-decoration="none" x="600" y="120">UNREGISTERED</text><text fill="#eeeeee" stroke="none" font-family="Arial" font-size="24px" font-style="normal" font-weight="normal" text-decoration="none" x="600" y="150">UNREGISTERED</text><text fill="#eeeeee" stroke="none" font-family="Arial" font-size="24px" font-style="normal" font-weight="normal" text-decoration="none" x="600" y="180">UNREGISTERED</text><text fill="#eeeeee" stroke="none" font-family="Arial" font-size="24px" font-style="normal" font-weight="normal" text-decoration="none" x="600" y="210">UNREGISTERED</text><text fill="#eeeeee" stroke="none" font-family="Arial" font-size="24px" font-style="normal" font-weight="normal" text-decoration="none" x="600" y="240">UNREGISTERED</text><text fill="#eeeeee" stroke="none" font-family="Arial" font-size="24px" font-style="normal" font-weight="normal" text-decoration="none" x="600" y="270">UNREGISTERED</text><text fill="#eeeeee" stroke="none" font-family="Arial" font-size="24px" font-style="normal" font-weight="normal" text-decoration="none" x="600" y="300">UNREGISTERED</text><text fill="#eeeeee" stroke="none" font-family="Arial" font-size="24px" font-style="normal" font-weight="normal" text-decoration="none" x="600" y="330">UNREGISTERED</text><text fill="#eeeeee" stroke="none" font-family="Arial" font-size="24px" font-style="normal" font-weight="normal" text-decoration="none" x="600" y="360">UNREGISTERED</text><text fill="#eeeeee" stroke="none" font-family="Arial" font-size="24px" font-style="normal" font-weight="normal" text-decoration="none" x="600" y="390">UNREGISTERED</text><text fill="#eeeeee" stroke="none" font-family="Arial" font-size="24px" font-style="normal" font-weight="normal" text-decoration="none" x="800" y="0">UNREGISTERED</text><text fill="#eeeeee" stroke="none" font-family="Arial" font-size="24px" font-style="normal" font-weight="normal" text-decoration="none" x="800" y="30">UNREGISTERED</text><text fill="#eeeeee" stroke="none" font-family="Arial" font-size="24px" font-style="normal" font-weight="normal" text-decoration="none" x="800" y="60">UNREGISTERED</text><text fill="#eeeeee" stroke="none" font-family="Arial" font-size="24px" font-style="normal" font-weight="normal" text-decoration="none" x="800" y="90">UNREGISTERED</text><text fill="#eeeeee" stroke="none" font-family="Arial" font-size="24px" font-style="normal" font-weight="normal" text-decoration="none" x="800" y="120">UNREGISTERED</text><text fill="#eeeeee" stroke="none" font-family="Arial" font-size="24px" font-style="normal" font-weight="normal" text-decoration="none" x="800" y="150">UNREGISTERED</text><text fill="#eeeeee" stroke="none" font-family="Arial" font-size="24px" font-style="normal" font-weight="normal" text-decoration="none" x="800" y="180">UNREGISTERED</text><text fill="#eeeeee" stroke="none" font-family="Arial" font-size="24px" font-style="normal" font-weight="normal" text-decoration="none" x="800" y="210">UNREGISTERED</text><text fill="#eeeeee" stroke="none" font-family="Arial" font-size="24px" font-style="normal" font-weight="normal" text-decoration="none" x="800" y="240">UNREGISTERED</text><text fill="#eeeeee" stroke="none" font-family="Arial" font-size="24px" font-style="normal" font-weight="normal" text-decoration="none" x="800" y="270">UNREGISTERED</text><text fill="#eeeeee" stroke="none" font-family="Arial" font-size="24px" font-style="normal" font-weight="normal" text-decoration="none" x="800" y="300">UNREGISTERED</text><text fill="#eeeeee" stroke="none" font-family="Arial" font-size="24px" font-style="normal" font-weight="normal" text-decoration="none" x="800" y="330">UNREGISTERED</text><text fill="#eeeeee" stroke="none" font-family="Arial" font-size="24px" font-style="normal" font-weight="normal" text-decoration="none" x="800" y="360">UNREGISTERED</text><text fill="#eeeeee" stroke="none" font-family="Arial" font-size="24px" font-style="normal" font-weight="normal" text-decoration="none" x="800" y="390">UNREGISTERED</text><text fill="#eeeeee" stroke="none" font-family="Arial" font-size="24px" font-style="normal" font-weight="normal" text-decoration="none" x="1000" y="0">UNREGISTERED</text><text fill="#eeeeee" stroke="none" font-family="Arial" font-size="24px" font-style="normal" font-weight="normal" text-decoration="none" x="1000" y="30">UNREGISTERED</text><text fill="#eeeeee" stroke="none" font-family="Arial" font-size="24px" font-style="normal" font-weight="normal" text-decoration="none" x="1000" y="60">UNREGISTERED</text><text fill="#eeeeee" stroke="none" font-family="Arial" font-size="24px" font-style="normal" font-weight="normal" text-decoration="none" x="1000" y="90">UNREGISTERED</text><text fill="#eeeeee" stroke="none" font-family="Arial" font-size="24px" font-style="normal" font-weight="normal" text-decoration="none" x="1000" y="120">UNREGISTERED</text><text fill="#eeeeee" stroke="none" font-family="Arial" font-size="24px" font-style="normal" font-weight="normal" text-decoration="none" x="1000" y="150">UNREGISTERED</text><text fill="#eeeeee" stroke="none" font-family="Arial" font-size="24px" font-style="normal" font-weight="normal" text-decoration="none" x="1000" y="180">UNREGISTERED</text><text fill="#eeeeee" stroke="none" font-family="Arial" font-size="24px" font-style="normal" font-weight="normal" text-decoration="none" x="1000" y="210">UNREGISTERED</text><text fill="#eeeeee" stroke="none" font-family="Arial" font-size="24px" font-style="normal" font-weight="normal" text-decoration="none" x="1000" y="240">UNREGISTERED</text><text fill="#eeeeee" stroke="none" font-family="Arial" font-size="24px" font-style="normal" font-weight="normal" text-decoration="none" x="1000" y="270">UNREGISTERED</text><text fill="#eeeeee" stroke="none" font-family="Arial" font-size="24px" font-style="normal" font-weight="normal" text-decoration="none" x="1000" y="300">UNREGISTERED</text><text fill="#eeeeee" stroke="none" font-family="Arial" font-size="24px" font-style="normal" font-weight="normal" text-decoration="none" x="1000" y="330">UNREGISTERED</text><text fill="#eeeeee" stroke="none" font-family="Arial" font-size="24px" font-style="normal" font-weight="normal" text-decoration="none" x="1000" y="360">UNREGISTERED</text><text fill="#eeeeee" stroke="none" font-family="Arial" font-size="24px" font-style="normal" font-weight="normal" text-decoration="none" x="1000" y="390">UNREGISTERED</text><g transform="translate(-102,-46) scale(1,1)"><path fill="#C0C0C0" stroke="none" d="M 233.015869140625 74.5 C 233.015869140625 68.1487248 238.164593940625 63 244.515869140625 63 C 250.867144340625 63 256.015869140625 68.1487248 256.015869140625 74.5 C 256.015869140625 80.8512752 250.867144340625 86 244.515869140625 86 C 238.164593940625 86 233.015869140625 80.8512752 233.015869140625 74.5 Z" opacity="0.2"/></g><g transform="translate(-102,-46) scale(1,1)"><path fill="#ffffff" stroke="none" d="M 226.015869140625 67.5 C 226.015869140625 61.1487248 231.164593940625 56 237.515869140625 56 C 243.867144340625 56 249.015869140625 61.1487248 249.015869140625 67.5 C 249.015869140625 73.8512752 243.867144340625 79 237.515869140625 79 C 231.164593940625 79 226.015869140625 73.8512752 226.015869140625 67.5 Z"/></g><g transform="translate(-102,-46) scale(1,1)"><path fill="none" stroke="#000000" d="M 226.015869140625 67.5 C 226.015869140625 61.1487248 231.164593940625 56 237.515869140625 56 C 243.867144340625 56 249.015869140625 61.1487248 249.015869140625 67.5 C 249.015869140625 73.8512752 243.867144340625 79 237.515869140625 79 C 231.164593940625 79 226.015869140625 73.8512752 226.015869140625 67.5 Z" stroke-miterlimit="10"/></g><g transform="translate(-102,-46) scale(1,1)"><g><path fill="none" stroke="none"/><text fill="#000000" stroke="none" font-family="Arial" font-size="13px" font-style="normal" font-weight="bold" text-decoration="none" x="176.82275390625" y="98.5">OrthographicCamera</text></g></g><g transform="translate(-102,-46) scale(1,1)"><rect fill="#C0C0C0" stroke="none" x="167" y="135" width="158.92529296875" height="88" opacity="0.2"/></g><g transform="translate(-102,-46) scale(1,1)"><rect fill="#ffffff" stroke="none" x="160" y="128" width="158.92529296875" height="88"/></g><g transform="translate(-102,-46) scale(1,1)"><path fill="none" stroke="#000000" d="M 160 128 L 318.92529296875 128 L 318.92529296875 216 L 160 216 L 160 128 Z Z" stroke-miterlimit="10"/></g><g transform="translate(-102,-46) scale(1,1)"><path fill="none" stroke="#000000" d="M 160 153 L 318.92529296875 153" stroke-miterlimit="10"/></g><g transform="translate(-102,-46) scale(1,1)"><path fill="none" stroke="#000000" d="M 160 176 L 318.92529296875 176" stroke-miterlimit="10"/></g><g transform="translate(-102,-46) scale(1,1)"><g><path fill="none" stroke="none"/><text fill="#000000" stroke="none" font-family="Arial" font-size="13px" font-style="normal" font-weight="bold" text-decoration="none" x="198.64404296875" y="147.5">GameCamera</text></g></g><g transform="translate(-102,-46) scale(1,1)"><g><path fill="none" stroke="none"/><text fill="#000000" stroke="none" font-family="Arial" font-size="13px" font-style="normal" font-weight="normal" text-decoration="none" x="165" y="170.5">+current_y: float</text></g></g><g transform="translate(-102,-46) scale(1,1)"><g><path fill="none" stroke="none"/><text fill="#000000" stroke="none" font-family="Arial" font-size="13px" font-style="normal" font-weight="normal" text-decoration="none" x="165" y="193.5">+translate(x: float, y: float)</text></g></g><g transform="translate(-102,-46) scale(1,1)"><g><path fill="none" stroke="none"/><text fill="#000000" stroke="none" font-family="Arial" font-size="13px" font-style="normal" font-weight="normal" text-decoration="none" x="165" y="208.5">+followBoat(boat: Boat)</text></g></g><g transform="translate(-102,-46) scale(1,1)"><path fill="none" stroke="#000000" d="M 238 105 L 238 127" stroke-miterlimit="10"/></g><g transform="translate(-102,-46) scale(1,1)"><path fill="none" stroke="#000000" d="M 233.790482243984 116.83732514237585 L 238 127 L 242.209517756016 116.83732514237585" stroke-miterlimit="10"/></g><g transform="translate(-102,-46) scale(1,1)"><rect fill="#C0C0C0" stroke="none" x="119" y="295" width="317.81982421875" height="88" opacity="0.2"/></g><g transform="translate(-102,-46) scale(1,1)"><rect fill="#ffffff" stroke="none" x="112" y="288" width="317.81982421875" height="88"/></g><g transform="translate(-102,-46) scale(1,1)"><path fill="none" stroke="#000000" d="M 112 288 L 429.81982421875 288 L 429.81982421875 376 L 112 376 L 112 288 Z Z" stroke-miterlimit="10"/></g><g transform="translate(-102,-46) scale(1,1)"><path fill="none" stroke="#000000" d="M 112 313 L 429.81982421875 313" stroke-miterlimit="10"/></g><g transform="translate(-102,-46) scale(1,1)"><path fill="none" stroke="#000000" d="M 112 366 L 429.81982421875 366" stroke-miterlimit="10"/></g><g transform="translate(-102,-46) scale(1,1)"><g><path fill="none" stroke="none"/><text fill="#000000" stroke="none" font-family="Arial" font-size="13px" font-style="normal" font-weight="bold" text-decoration="none" x="229.72314453125" y="307.5">GameSettings</text></g></g><g transform="translate(-102,-46) scale(1,1)"><g><path fill="none" stroke="none"/><text fill="#000000" stroke="none" font-family="Arial" font-size="13px" font-style="normal" font-weight="normal" text-decoration="none" x="117" y="330.5">-sound_volume: String = "sound" {readOnly}</text><path fill="none" stroke="#000000" d="M 117 330.5 L 371.5791015625 330.5" stroke-miterlimit="10"/></g></g><g transform="translate(-102,-46) scale(1,1)"><g><path fill="none" stroke="none"/><text fill="#000000" stroke="none" font-family="Arial" font-size="13px" font-style="normal" font-weight="normal" text-decoration="none" x="117" y="345.5">-sound_enabled: String = "sound.enabled" {readOnly}</text><path fill="none" stroke="#000000" d="M 117 345.5 L 425.81982421875 345.5" stroke-miterlimit="10"/></g></g><g transform="translate(-102,-46) scale(1,1)"><g><path fill="none" stroke="none"/><text fill="#000000" stroke="none" font-family="Arial" font-size="13px" font-style="normal" font-weight="normal" text-decoration="none" x="117" y="360.5">-settings_name: String = "DBGSettings" {readOnly}</text><path fill="none" stroke="#000000" d="M 117 360.5 L 411.29638671875 360.5" stroke-miterlimit="10"/></g></g><g transform="translate(-102,-46) scale(1,1)"><rect fill="#C0C0C0" stroke="none" x="711" y="119" width="397.400390625" height="265" opacity="0.2"/></g><g transform="translate(-102,-46) scale(1,1)"><rect fill="#ffffff" stroke="none" x="704" y="112" width="397.400390625" height="265"/></g><g transform="translate(-102,-46) scale(1,1)"><path fill="none" stroke="#000000" d="M 704 112 L 1101.400390625 112 L 1101.400390625 377 L 704 377 L 704 112 Z Z" stroke-miterlimit="10"/></g><g transform="translate(-102,-46) scale(1,1)"><path fill="none" stroke="#000000" d="M 704 137 L 1101.400390625 137" stroke-miterlimit="10"/></g><g transform="translate(-102,-46) scale(1,1)"><path fill="none" stroke="#000000" d="M 704 235 L 1101.400390625 235" stroke-miterlimit="10"/></g><g transform="translate(-102,-46) scale(1,1)"><g><path fill="none" stroke="none"/><text fill="#000000" stroke="none" font-family="Arial" font-size="13px" font-style="normal" font-weight="bold" text-decoration="none" x="858.62841796875" y="131.5">GameStructure</text></g></g><g transform="translate(-102,-46) scale(1,1)"><g><path fill="none" stroke="none"/><text fill="#000000" stroke="none" font-family="Arial" font-size="13px" font-style="normal" font-weight="normal" text-decoration="none" x="709" y="154.5">-game: DragonBoatGame</text></g></g><g transform="translate(-102,-46) scale(1,1)"><g><path fill="none" stroke="none"/><text fill="#000000" stroke="none" font-family="Arial" font-size="13px" font-style="normal" font-weight="normal" text-decoration="none" x="709" y="169.5">-race_screen: RaceLegScreen</text></g></g><g transform="translate(-102,-46) scale(1,1)"><g><path fill="none" stroke="none"/><text fill="#000000" stroke="none" font-family="Arial" font-size="13px" font-style="normal" font-weight="normal" text-decoration="none" x="709" y="184.5">-players: List&lt;Boat&gt;</text></g></g><g transform="translate(-102,-46) scale(1,1)"><g><path fill="none" stroke="none"/><text fill="#000000" stroke="none" font-family="Arial" font-size="13px" font-style="normal" font-weight="normal" text-decoration="none" x="709" y="199.5">-obstacles: List&lt;Obstacle&gt;</text></g></g><g transform="translate(-102,-46) scale(1,1)"><g><path fill="none" stroke="none"/><text fill="#000000" stroke="none" font-family="Arial" font-size="13px" font-style="normal" font-weight="normal" text-decoration="none" x="709" y="214.5">-current_leg: Legs</text></g></g><g transform="translate(-102,-46) scale(1,1)"><g><path fill="none" stroke="none"/><text fill="#000000" stroke="none" font-family="Arial" font-size="13px" font-style="normal" font-weight="normal" text-decoration="none" x="709" y="229.5">-FINISH_HEIGHT: int = 20000</text><path fill="none" stroke="#000000" d="M 709 229.5 L 882.7607421875 229.5" stroke-miterlimit="10"/></g></g><g transform="translate(-102,-46) scale(1,1)"><g><path fill="none" stroke="none"/><text fill="#000000" stroke="none" font-family="Arial" font-size="13px" font-style="normal" font-weight="normal" text-decoration="none" x="709" y="252.5">+resetAll()</text></g></g><g transform="translate(-102,-46) scale(1,1)"><g><path fill="none" stroke="none"/><text fill="#000000" stroke="none" font-family="Arial" font-size="13px" font-style="normal" font-weight="normal" text-decoration="none" x="709" y="267.5">+isBoatAcross(boat: Boat)</text></g></g><g transform="translate(-102,-46) scale(1,1)"><g><path fill="none" stroke="none"/><text fill="#000000" stroke="none" font-family="Arial" font-size="13px" font-style="normal" font-weight="normal" text-decoration="none" x="709" y="282.5">+allBoatsAcross()</text></g></g><g transform="translate(-102,-46) scale(1,1)"><g><path fill="none" stroke="none"/><text fill="#000000" stroke="none" font-family="Arial" font-size="13px" font-style="normal" font-weight="normal" text-decoration="none" x="709" y="297.5">+raceOver(player_boat: PlayerBoat)</text></g></g><g transform="translate(-102,-46) scale(1,1)"><g><path fill="none" stroke="none"/><text fill="#000000" stroke="none" font-family="Arial" font-size="13px" font-style="normal" font-weight="normal" text-decoration="none" x="709" y="312.5">+callScreen()</text></g></g><g transform="translate(-102,-46) scale(1,1)"><g><path fill="none" stroke="none"/><text fill="#000000" stroke="none" font-family="Arial" font-size="13px" font-style="normal" font-weight="normal" text-decoration="none" x="709" y="327.5">+startLeg()</text></g></g><g transform="translate(-102,-46) scale(1,1)"><g><path fill="none" stroke="none"/><text fill="#000000" stroke="none" font-family="Arial" font-size="13px" font-style="normal" font-weight="normal" text-decoration="none" x="709" y="342.5">+setLeg(leg: Legs)</text></g></g><g transform="translate(-102,-46) scale(1,1)"><g><path fill="none" stroke="none"/><text fill="#000000" stroke="none" font-family="Arial" font-size="13px" font-style="normal" font-weight="normal" text-decoration="none" x="709" y="357.5">-addBoatsToLeg(leg_no: int)</text></g></g><g transform="translate(-102,-46) scale(1,1)"><g><path fill="none" stroke="none"/><text fill="#000000" stroke="none" font-family="Arial" font-size="13px" font-style="normal" font-weight="normal" text-decoration="none" x="709" y="372.5">-IncrementCurrentLeg()</text></g></g><g transform="translate(-102,-46) scale(1,1)"><rect fill="#C0C0C0" stroke="none" x="527" y="111" width="125.34619140625" height="105" opacity="0.2"/></g><g transform="translate(-102,-46) scale(1,1)"><rect fill="#ffffff" stroke="none" x="520" y="104" width="125.34619140625" height="105"/></g><g transform="translate(-102,-46) scale(1,1)"><path fill="none" stroke="#000000" d="M 520 104 L 645.34619140625 104 L 645.34619140625 209 L 520 209 L 520 104 Z Z" stroke-miterlimit="10"/></g><g transform="translate(-102,-46) scale(1,1)"><path fill="none" stroke="#000000" d="M 520 142 L 645.34619140625 142" stroke-miterlimit="10"/></g><g transform="translate(-102,-46) scale(1,1)"><g><path fill="none" stroke="none"/><text fill="#000000" stroke="none" font-family="Arial" font-size="13px" font-style="normal" font-weight="normal" text-decoration="none" x="539.30908203125" y="121.5">«enumeration»</text></g></g><g transform="translate(-102,-46) scale(1,1)"><g><path fill="none" stroke="none"/><text fill="#000000" stroke="none" font-family="Arial" font-size="13px" font-style="normal" font-weight="bold" text-decoration="none" x="568.578125" y="136.5">Legs</text></g></g><g transform="translate(-102,-46) scale(1,1)"><g><path fill="none" stroke="none"/><text fill="#000000" stroke="none" font-family="Arial" font-size="13px" font-style="normal" font-weight="normal" text-decoration="none" x="525" y="159.5">LEG_ONE</text></g></g><g transform="translate(-102,-46) scale(1,1)"><g><path fill="none" stroke="none"/><text fill="#000000" stroke="none" font-family="Arial" font-size="13px" font-style="normal" font-weight="normal" text-decoration="none" x="525" y="174.5">LEG_TWO</text></g></g><g transform="translate(-102,-46) scale(1,1)"><g><path fill="none" stroke="none"/><text fill="#000000" stroke="none" font-family="Arial" font-size="13px" font-style="normal" font-weight="normal" text-decoration="none" x="525" y="189.5">LEG_THREE</text></g></g><g transform="translate(-102,-46) scale(1,1)"><g><path fill="none" stroke="none"/><text fill="#000000" stroke="none" font-family="Arial" font-size="13px" font-style="normal" font-weight="normal" text-decoration="none" x="525" y="204.5">LEG_FINAL</text></g></g><g transform="translate(-102,-46) scale(1,1)"><path fill="none" stroke="#000000" d="M 646 174 L 703 189" stroke-miterlimit="10"/></g><g transform="translate(-102,-46) scale(1,1)"><rect fill="#C0C0C0" stroke="none" x="479" y="303" width="146.90283203125" height="57" opacity="0.2"/></g><g transform="translate(-102,-46) scale(1,1)"><rect fill="#ffffff" stroke="none" x="472" y="296" width="146.90283203125" height="57"/></g><g transform="translate(-102,-46) scale(1,1)"><path fill="none" stroke="#000000" d="M 472 296 L 618.90283203125 296 L 618.90283203125 353 L 472 353 L 472 296 Z Z" stroke-miterlimit="10"/></g><g transform="translate(-102,-46) scale(1,1)"><path fill="none" stroke="#000000" d="M 472 321 L 618.90283203125 321" stroke-miterlimit="10"/></g><g transform="translate(-102,-46) scale(1,1)"><path fill="none" stroke="#000000" d="M 472 344 L 618.90283203125 344" stroke-miterlimit="10"/></g><g transform="translate(-102,-46) scale(1,1)"><g><path fill="none" stroke="none"/><text fill="#000000" stroke="none" font-family="Arial" font-size="13px" font-style="normal" font-weight="bold" text-decoration="none" x="508.60009765625" y="315.5">TextureStore</text></g></g><g transform="translate(-102,-46) scale(1,1)"><g><path fill="none" stroke="none"/><text fill="#000000" stroke="none" font-family="Arial" font-size="13px" font-style="normal" font-weight="normal" text-decoration="none" x="477" y="338.5">+map: Map&lt;MapTuple&gt;</text></g></g><g transform="translate(-102,-46) scale(1,1)"><rect fill="#C0C0C0" stroke="none" x="487" y="383" width="136.537109375" height="75" opacity="0.2"/></g><g transform="translate(-102,-46) scale(1,1)"><rect fill="#ffffff" stroke="none" x="480" y="376" width="136.537109375" height="75"/></g><g transform="translate(-102,-46) scale(1,1)"><path fill="none" stroke="#000000" d="M 480 376 L 616.537109375 376 L 616.537109375 451 L 480 451 L 480 376 Z Z" stroke-miterlimit="10"/></g><g transform="translate(-102,-46) scale(1,1)"><path fill="none" stroke="#000000" d="M 480 414 L 616.537109375 414" stroke-miterlimit="10"/></g><g transform="translate(-102,-46) scale(1,1)"><g><path fill="none" stroke="none"/><text fill="#000000" stroke="none" font-family="Arial" font-size="13px" font-style="normal" font-weight="normal" text-decoration="none" x="514.2958984375" y="393.5">«dataType»</text></g></g><g transform="translate(-102,-46) scale(1,1)"><g><path fill="none" stroke="none"/><text fill="#000000" stroke="none" font-family="Arial" font-size="13px" font-style="normal" font-weight="bold" text-decoration="none" x="519.605712890625" y="408.5">MapTuple</text></g></g><g transform="translate(-102,-46) scale(1,1)"><g><path fill="none" stroke="none"/><text fill="#000000" stroke="none" font-family="Arial" font-size="13px" font-style="normal" font-weight="normal" text-decoration="none" x="485" y="431.5">+texture_string: String</text></g></g><g transform="translate(-102,-46) scale(1,1)"><g><path fill="none" stroke="none"/><text fill="#000000" stroke="none" font-family="Arial" font-size="13px" font-style="normal" font-weight="normal" text-decoration="none" x="485" y="446.5">+texture: Texture</text></g></g><g transform="translate(-102,-46) scale(1,1)"><path fill="none" stroke="#000000" d="M 547 375 L 546 354" stroke-miterlimit="10"/></g></g></svg>