<svg version="1.1" xmlns="http://www.w3.org/2000/svg" xmlns:xlink="http://www.w3.org/1999/xlink" width="240.44091796875" height="204"><defs/><g><text fill="#eeeeee" stroke="none" font-family="Arial" font-size="24px" font-style="normal" font-weight="normal" text-decoration="none" x="0" y="0">UNREGISTERED</text><text fill="#eeeeee" stroke="none" font-family="Arial" font-size="24px" font-style="normal" font-weight="normal" text-decoration="none" x="0" y="30">UNREGISTERED</text><text fill="#eeeeee" stroke="none" font-family="Arial" font-size="24px" font-style="normal" font-weight="normal" text-decoration="none" x="0" y="60">UNREGISTERED</text><text fill="#eeeeee" stroke="none" font-family="Arial" font-size="24px" font-style="normal" font-weight="normal" text-decoration="none" x="0" y="90">UNREGISTERED</text><text fill="#eeeeee" stroke="none" font-family="Arial" font-size="24px" font-style="normal" font-weight="normal" text-decoration="none" x="0" y="120">UNREGISTERED</text><text fill="#eeeeee" stroke="none" font-family="Arial" font-size="24px" font-style="normal" font-weight="normal" text-decoration="none" x="0" y="150">UNREGISTERED</text><text fill="#eeeeee" stroke="none" font-family="Arial" font-size="24px" font-style="normal" font-weight="normal" text-decoration="none" x="0" y="180">UNREGISTERED</text><text fill="#eeeeee" stroke="none" font-family="Arial" font-size="24px" font-style="normal" font-weight="normal" text-decoration="none" x="200" y="0">UNREGISTERED</text><text fill="#eeeeee" stroke="none" font-family="Arial" font-size="24px" font-style="normal" font-weight="normal" text-decoration="none" x="200" y="30">UNREGISTERED</text><text fill="#eeeeee" stroke="none" font-family="Arial" font-size="24px" font-style="normal" font-weight="normal" text-decoration="none" x="200" y="60">UNREGISTERED</text><text fill="#eeeeee" stroke="none" font-family="Arial" font-size="24px" font-style="normal" font-weight="normal" text-decoration="none" x="200" y="90">UNREGISTERED</text><text fill="#eeeeee" stroke="none" font-family="Arial" font-size="24px" font-style="normal" font-weight="normal" text-decoration="none" x="200" y="120">UNREGISTERED</text><text fill="#eeeeee" stroke="none" font-family="Arial" font-size="24px" font-style="normal" font-weight="normal" text-decoration="none" x="200" y="150">UNREGISTERED</text><text fill="#eeeeee" stroke="none" font-family="Arial" font-size="24px" font-style="normal" font-weight="normal" text-decoration="none" x="200" y="180">UNREGISTERED</text><g transform="translate(-478,-318) scale(1,1)"><rect fill="#C0C0C0" stroke="none" x="505" y="335" width="98.44091796875" height="44" opacity="0.2"/></g><g transform="translate(-478,-318) scale(1,1)"><rect fill="#ffffff" stroke="none" x="498" y="328" width="98.44091796875" height="44"/></g><g transform="translate(-478,-318) scale(1,1)"><path fill="none" stroke="#000000" d="M 498 328 L 596.44091796875 328 L 596.44091796875 372 L 498 372 L 498 328 Z Z" stroke-miterlimit="10"/></g><g transform="translate(-478,-318) scale(1,1)"><rect fill="#ffffff" stroke="none" x="488" y="335" width="20" height="10"/></g><g transform="translate(-478,-318) scale(1,1)"><path fill="none" stroke="#000000" d="M 488 335 L 508 335 L 508 345 L 488 345 L 488 335 Z Z" stroke-miterlimit="10"/></g><g transform="translate(-478,-318) scale(1,1)"><rect fill="#ffffff" stroke="none" x="488" y="355" width="20" height="10"/></g><g transform="translate(-478,-318) scale(1,1)"><path fill="none" stroke="#000000" d="M 488 355 L 508 355 L 508 365 L 488 365 L 488 355 Z Z" stroke-miterlimit="10"/></g><g transform="translate(-478,-318) scale(1,1)"><g><path fill="none" stroke="none"/><text fill="#000000" stroke="none" font-family="Arial" font-size="13px" font-style="normal" font-weight="bold" text-decoration="none" x="539.582275390625" y="347.5">Disk</text></g></g><g transform="translate(-478,-318) scale(1,1)"><rect fill="#C0C0C0" stroke="none" x="617" y="391" width="98.44091796875" height="44" opacity="0.2"/></g><g transform="translate(-478,-318) scale(1,1)"><rect fill="#ffffff" stroke="none" x="610" y="384" width="98.44091796875" height="44"/></g><g transform="translate(-478,-318) scale(1,1)"><path fill="none" stroke="#000000" d="M 610 384 L 708.44091796875 384 L 708.44091796875 428 L 610 428 L 610 384 Z Z" stroke-miterlimit="10"/></g><g transform="translate(-478,-318) scale(1,1)"><rect fill="#ffffff" stroke="none" x="600" y="391" width="20" height="10"/></g><g transform="translate(-478,-318) scale(1,1)"><path fill="none" stroke="#000000" d="M 600 391 L 620 391 L 620 401 L 600 401 L 600 391 Z Z" stroke-miterlimit="10"/></g><g transform="translate(-478,-318) scale(1,1)"><rect fill="#ffffff" stroke="none" x="600" y="411" width="20" height="10"/></g><g transform="translate(-478,-318) scale(1,1)"><path fill="none" stroke="#000000" d="M 600 411 L 620 411 L 620 421 L 600 421 L 600 411 Z Z" stroke-miterlimit="10"/></g><g transform="translate(-478,-318) scale(1,1)"><g><path fill="none" stroke="none"/><text fill="#000000" stroke="none" font-family="Arial" font-size="13px" font-style="normal" font-weight="bold" text-decoration="none" x="627.369140625" y="403.5">TextureStore</text></g></g><g transform="translate(-478,-318) scale(1,1)"><rect fill="#C0C0C0" stroke="none" x="521" y="455" width="98.44091796875" height="44" opacity="0.2"/></g><g transform="translate(-478,-318) scale(1,1)"><rect fill="#ffffff" stroke="none" x="514" y="448" width="98.44091796875" height="44"/></g><g transform="translate(-478,-318) scale(1,1)"><path fill="none" stroke="#000000" d="M 514 448 L 612.44091796875 448 L 612.44091796875 492 L 514 492 L 514 448 Z Z" stroke-miterlimit="10"/></g><g transform="translate(-478,-318) scale(1,1)"><rect fill="#ffffff" stroke="none" x="504" y="455" width="20" height="10"/></g><g transform="translate(-478,-318) scale(1,1)"><path fill="none" stroke="#000000" d="M 504 455 L 524 455 L 524 465 L 504 465 L 504 455 Z Z" stroke-miterlimit="10"/></g><g transform="translate(-478,-318) scale(1,1)"><rect fill="#ffffff" stroke="none" x="504" y="475" width="20" height="10"/></g><g transform="translate(-478,-318) scale(1,1)"><path fill="none" stroke="#000000" d="M 504 475 L 524 475 L 524 485 L 504 485 L 504 475 Z Z" stroke-miterlimit="10"/></g><g transform="translate(-478,-318) scale(1,1)"><g><path fill="none" stroke="none"/><text fill="#000000" stroke="none" font-family="Arial" font-size="13px" font-style="normal" font-weight="bold" text-decoration="none" x="550.52001953125" y="467.5">Game</text></g></g><g transform="translate(-478,-318) scale(1,1)"><path fill="#C0C0C0" stroke="none" d="M 654.7099609375 482.5 C 654.7099609375 476.1487248 659.8586857375 471 666.2099609375 471 C 672.5612361375 471 677.7099609375 476.1487248 677.7099609375 482.5 C 677.7099609375 488.8512752 672.5612361375 494 666.2099609375 494 C 659.8586857375 494 654.7099609375 488.8512752 654.7099609375 482.5 Z" opacity="0.2"/></g><g transform="translate(-478,-318) scale(1,1)"><path fill="none" stroke="#000000" d="M 661.1950010796756 486.28857698118867 A 11.5 11.5 0 0 1 656.8049989203244 463.71142301881133" stroke-miterlimit="10"/></g><g transform="translate(-478,-318) scale(1,1)"><path fill="#ffffff" stroke="none" d="M 650.7099609375 475.5 C 650.7099609375 470.8055792 654.5155401375 467 659.2099609375 467 C 663.9043817375 467 667.7099609375 470.8055792 667.7099609375 475.5 C 667.7099609375 480.1944208 663.9043817375 484 659.2099609375 484 C 654.5155401375 484 650.7099609375 480.1944208 650.7099609375 475.5 Z"/></g><g transform="translate(-478,-318) scale(1,1)"><path fill="none" stroke="#000000" d="M 650.7099609375 475.5 C 650.7099609375 470.8055792 654.5155401375 467 659.2099609375 467 C 663.9043817375 467 667.7099609375 470.8055792 667.7099609375 475.5 C 667.7099609375 480.1944208 663.9043817375 484 659.2099609375 484 C 654.5155401375 484 650.7099609375 480.1944208 650.7099609375 475.5 Z" stroke-miterlimit="10"/></g><g transform="translate(-478,-318) scale(1,1)"><g><path fill="none" stroke="none"/><text fill="#000000" stroke="none" font-family="Arial" font-size="13px" font-style="normal" font-weight="bold" text-decoration="none" x="637.89453125" y="506.5">Texture</text></g></g><g transform="translate(-478,-318) scale(1,1)"><path fill="none" stroke="#000000" d="M 655 429 L 657.1666666666666 464" stroke-miterlimit="10"/></g><g transform="translate(-478,-318) scale(1,1)"><path fill="none" stroke="#000000" d="M 613 480 L 647.7099609375 477.1952853732639" stroke-miterlimit="10"/></g><g transform="translate(-478,-318) scale(1,1)"><path fill="#C0C0C0" stroke="none" d="M 542.7099609375 418.5 C 542.7099609375 412.1487248 547.8586857375 407 554.2099609375 407 C 560.5612361375 407 565.7099609375 412.1487248 565.7099609375 418.5 C 565.7099609375 424.8512752 560.5612361375 430 554.2099609375 430 C 547.8586857375 430 542.7099609375 424.8512752 542.7099609375 418.5 Z" opacity="0.2"/></g><g transform="translate(-478,-318) scale(1,1)"><path fill="none" stroke="#000000" d="M 549.1950010796755 399.71142301881133 A 11.5 11.5 0 0 1 544.8049989203245 422.28857698118867" stroke-miterlimit="10"/></g><g transform="translate(-478,-318) scale(1,1)"><path fill="#ffffff" stroke="none" d="M 538.7099609375 411.5 C 538.7099609375 406.8055792 542.5155401375 403 547.2099609375 403 C 551.9043817375 403 555.7099609375 406.8055792 555.7099609375 411.5 C 555.7099609375 416.1944208 551.9043817375 420 547.2099609375 420 C 542.5155401375 420 538.7099609375 416.1944208 538.7099609375 411.5 Z"/></g><g transform="translate(-478,-318) scale(1,1)"><path fill="none" stroke="#000000" d="M 538.7099609375 411.5 C 538.7099609375 406.8055792 542.5155401375 403 547.2099609375 403 C 551.9043817375 403 555.7099609375 406.8055792 555.7099609375 411.5 C 555.7099609375 416.1944208 551.9043817375 420 547.2099609375 420 C 542.5155401375 420 538.7099609375 416.1944208 538.7099609375 411.5 Z" stroke-miterlimit="10"/></g><g transform="translate(-478,-318) scale(1,1)"><g><path fill="none" stroke="none"/><text fill="#000000" stroke="none" font-family="Arial" font-size="13px" font-style="normal" font-weight="bold" text-decoration="none" x="533.12451171875" y="442.5">PNG</text></g></g><g transform="translate(-478,-318) scale(1,1)"><path fill="none" stroke="#000000" d="M 544 373 L 545.1666666666666 400" stroke-miterlimit="10"/></g><g transform="translate(-478,-318) scale(1,1)"><path fill="none" stroke="#000000" d="M 599 415 L 558.7099609375 413.2769368489583" stroke-miterlimit="10"/></g></g></svg>