<svg version="1.1" xmlns="http://www.w3.org/2000/svg" xmlns:xlink="http://www.w3.org/1999/xlink" width="259.8642578125" height="529"><defs/><g><text fill="#eeeeee" stroke="none" font-family="Arial" font-size="24px" font-style="normal" font-weight="normal" text-decoration="none" x="0" y="0">UNREGISTERED</text><text fill="#eeeeee" stroke="none" font-family="Arial" font-size="24px" font-style="normal" font-weight="normal" text-decoration="none" x="0" y="30">UNREGISTERED</text><text fill="#eeeeee" stroke="none" font-family="Arial" font-size="24px" font-style="normal" font-weight="normal" text-decoration="none" x="0" y="60">UNREGISTERED</text><text fill="#eeeeee" stroke="none" font-family="Arial" font-size="24px" font-style="normal" font-weight="normal" text-decoration="none" x="0" y="90">UNREGISTERED</text><text fill="#eeeeee" stroke="none" font-family="Arial" font-size="24px" font-style="normal" font-weight="normal" text-decoration="none" x="0" y="120">UNREGISTERED</text><text fill="#eeeeee" stroke="none" font-family="Arial" font-size="24px" font-style="normal" font-weight="normal" text-decoration="none" x="0" y="150">UNREGISTERED</text><text fill="#eeeeee" stroke="none" font-family="Arial" font-size="24px" font-style="normal" font-weight="normal" text-decoration="none" x="0" y="180">UNREGISTERED</text><text fill="#eeeeee" stroke="none" font-family="Arial" font-size="24px" font-style="normal" font-weight="normal" text-decoration="none" x="0" y="210">UNREGISTERED</text><text fill="#eeeeee" stroke="none" font-family="Arial" font-size="24px" font-style="normal" font-weight="normal" text-decoration="none" x="0" y="240">UNREGISTERED</text><text fill="#eeeeee" stroke="none" font-family="Arial" font-size="24px" font-style="normal" font-weight="normal" text-decoration="none" x="0" y="270">UNREGISTERED</text><text fill="#eeeeee" stroke="none" font-family="Arial" font-size="24px" font-style="normal" font-weight="normal" text-decoration="none" x="0" y="300">UNREGISTERED</text><text fill="#eeeeee" stroke="none" font-family="Arial" font-size="24px" font-style="normal" font-weight="normal" text-decoration="none" x="0" y="330">UNREGISTERED</text><text fill="#eeeeee" stroke="none" font-family="Arial" font-size="24px" font-style="normal" font-weight="normal" text-decoration="none" x="0" y="360">UNREGISTERED</text><text fill="#eeeeee" stroke="none" font-family="Arial" font-size="24px" font-style="normal" font-weight="normal" text-decoration="none" x="0" y="390">UNREGISTERED</text><text fill="#eeeeee" stroke="none" font-family="Arial" font-size="24px" font-style="normal" font-weight="normal" text-decoration="none" x="0" y="420">UNREGISTERED</text><text fill="#eeeeee" stroke="none" font-family="Arial" font-size="24px" font-style="normal" font-weight="normal" text-decoration="none" x="0" y="450">UNREGISTERED</text><text fill="#eeeeee" stroke="none" font-family="Arial" font-size="24px" font-style="normal" font-weight="normal" text-decoration="none" x="0" y="480">UNREGISTERED</text><text fill="#eeeeee" stroke="none" font-family="Arial" font-size="24px" font-style="normal" font-weight="normal" text-decoration="none" x="0" y="510">UNREGISTERED</text><text fill="#eeeeee" stroke="none" font-family="Arial" font-size="24px" font-style="normal" font-weight="normal" text-decoration="none" x="200" y="0">UNREGISTERED</text><text fill="#eeeeee" stroke="none" font-family="Arial" font-size="24px" font-style="normal" font-weight="normal" text-decoration="none" x="200" y="30">UNREGISTERED</text><text fill="#eeeeee" stroke="none" font-family="Arial" font-size="24px" font-style="normal" font-weight="normal" text-decoration="none" x="200" y="60">UNREGISTERED</text><text fill="#eeeeee" stroke="none" font-family="Arial" font-size="24px" font-style="normal" font-weight="normal" text-decoration="none" x="200" y="90">UNREGISTERED</text><text fill="#eeeeee" stroke="none" font-family="Arial" font-size="24px" font-style="normal" font-weight="normal" text-decoration="none" x="200" y="120">UNREGISTERED</text><text fill="#eeeeee" stroke="none" font-family="Arial" font-size="24px" font-style="normal" font-weight="normal" text-decoration="none" x="200" y="150">UNREGISTERED</text><text fill="#eeeeee" stroke="none" font-family="Arial" font-size="24px" font-style="normal" font-weight="normal" text-decoration="none" x="200" y="180">UNREGISTERED</text><text fill="#eeeeee" stroke="none" font-family="Arial" font-size="24px" font-style="normal" font-weight="normal" text-decoration="none" x="200" y="210">UNREGISTERED</text><text fill="#eeeeee" stroke="none" font-family="Arial" font-size="24px" font-style="normal" font-weight="normal" text-decoration="none" x="200" y="240">UNREGISTERED</text><text fill="#eeeeee" stroke="none" font-family="Arial" font-size="24px" font-style="normal" font-weight="normal" text-decoration="none" x="200" y="270">UNREGISTERED</text><text fill="#eeeeee" stroke="none" font-family="Arial" font-size="24px" font-style="normal" font-weight="normal" text-decoration="none" x="200" y="300">UNREGISTERED</text><text fill="#eeeeee" stroke="none" font-family="Arial" font-size="24px" font-style="normal" font-weight="normal" text-decoration="none" x="200" y="330">UNREGISTERED</text><text fill="#eeeeee" stroke="none" font-family="Arial" font-size="24px" font-style="normal" font-weight="normal" text-decoration="none" x="200" y="360">UNREGISTERED</text><text fill="#eeeeee" stroke="none" font-family="Arial" font-size="24px" font-style="normal" font-weight="normal" text-decoration="none" x="200" y="390">UNREGISTERED</text><text fill="#eeeeee" stroke="none" font-family="Arial" font-size="24px" font-style="normal" font-weight="normal" text-decoration="none" x="200" y="420">UNREGISTERED</text><text fill="#eeeeee" stroke="none" font-family="Arial" font-size="24px" font-style="normal" font-weight="normal" text-decoration="none" x="200" y="450">UNREGISTERED</text><text fill="#eeeeee" stroke="none" font-family="Arial" font-size="24px" font-style="normal" font-weight="normal" text-decoration="none" x="200" y="480">UNREGISTERED</text><text fill="#eeeeee" stroke="none" font-family="Arial" font-size="24px" font-style="normal" font-weight="normal" text-decoration="none" x="200" y="510">UNREGISTERED</text><g transform="translate(-374,-30) scale(1,1)"><rect fill="#C0C0C0" stroke="none" x="391" y="111" width="239.8642578125" height="445" opacity="0.2"/></g><g transform="translate(-374,-30) scale(1,1)"><rect fill="#ffffff" stroke="none" x="384" y="104" width="239.8642578125" height="445"/></g><g transform="translate(-374,-30) scale(1,1)"><path fill="none" stroke="#000000" d="M 384 104 L 623.8642578125 104 L 623.8642578125 549 L 384 549 L 384 104 Z Z" stroke-miterlimit="10"/></g><g transform="translate(-374,-30) scale(1,1)"><path fill="none" stroke="#000000" d="M 384 129 L 623.8642578125 129" stroke-miterlimit="10"/></g><g transform="translate(-374,-30) scale(1,1)"><path fill="none" stroke="#000000" d="M 384 482 L 623.8642578125 482" stroke-miterlimit="10"/></g><g transform="translate(-374,-30) scale(1,1)"><g><path fill="none" stroke="none"/><text fill="#000000" stroke="none" font-family="Arial" font-size="13px" font-style="normal" font-weight="bold" text-decoration="none" x="451.541748046875" y="123.5">DragonBoatGame</text></g></g><g transform="translate(-374,-30) scale(1,1)"><g><path fill="none" stroke="none"/><text fill="#000000" stroke="none" font-family="Arial" font-size="13px" font-style="normal" font-weight="normal" text-decoration="none" x="389" y="146.5">-main_menu_screen: MainMenuScreen</text></g></g><g transform="translate(-374,-30) scale(1,1)"><g><path fill="none" stroke="none"/><text fill="#000000" stroke="none" font-family="Arial" font-size="13px" font-style="normal" font-weight="normal" text-decoration="none" x="389" y="161.5">-controls_screen: ControlsScreen</text></g></g><g transform="translate(-374,-30) scale(1,1)"><g><path fill="none" stroke="none"/><text fill="#000000" stroke="none" font-family="Arial" font-size="13px" font-style="normal" font-weight="normal" text-decoration="none" x="389" y="176.5">-boat_select_screen: BoatSelectScreen</text></g></g><g transform="translate(-374,-30) scale(1,1)"><g><path fill="none" stroke="none"/><text fill="#000000" stroke="none" font-family="Arial" font-size="13px" font-style="normal" font-weight="normal" text-decoration="none" x="389" y="191.5">-settings_screen: SettingsScreen</text></g></g><g transform="translate(-374,-30) scale(1,1)"><g><path fill="none" stroke="none"/><text fill="#000000" stroke="none" font-family="Arial" font-size="13px" font-style="normal" font-weight="normal" text-decoration="none" x="389" y="206.5">-race_leg_screen: RaceLegScreen</text></g></g><g transform="translate(-374,-30) scale(1,1)"><g><path fill="none" stroke="none"/><text fill="#000000" stroke="none" font-family="Arial" font-size="13px" font-style="normal" font-weight="normal" text-decoration="none" x="389" y="221.5">-podium_screen: PodiumScreen</text></g></g><g transform="translate(-374,-30) scale(1,1)"><g><path fill="none" stroke="none"/><text fill="#000000" stroke="none" font-family="Arial" font-size="13px" font-style="normal" font-weight="normal" text-decoration="none" x="389" y="236.5">-game_settings: GameSettings</text></g></g><g transform="translate(-374,-30) scale(1,1)"><g><path fill="none" stroke="none"/><text fill="#000000" stroke="none" font-family="Arial" font-size="13px" font-style="normal" font-weight="normal" text-decoration="none" x="389" y="251.5">-next_leg_screen: NextLegScreen</text></g></g><g transform="translate(-374,-30) scale(1,1)"><g><path fill="none" stroke="none"/><text fill="#000000" stroke="none" font-family="Arial" font-size="13px" font-style="normal" font-weight="normal" text-decoration="none" x="389" y="266.5">-game_over_screen: GameOverScreen</text></g></g><g transform="translate(-374,-30) scale(1,1)"><g><path fill="none" stroke="none"/><text fill="#000000" stroke="none" font-family="Arial" font-size="13px" font-style="normal" font-weight="normal" text-decoration="none" x="389" y="281.5">-info_screen: InfoScreen</text></g></g><g transform="translate(-374,-30) scale(1,1)"><g><path fill="none" stroke="none"/><text fill="#000000" stroke="none" font-family="Arial" font-size="13px" font-style="normal" font-weight="normal" text-decoration="none" x="389" y="296.5">+music: Music</text></g></g><g transform="translate(-374,-30) scale(1,1)"><g><path fill="none" stroke="none"/><text fill="#000000" stroke="none" font-family="Arial" font-size="13px" font-style="normal" font-weight="normal" text-decoration="none" x="389" y="311.5">+MENU: int = 0 {readOnly}</text><path fill="none" stroke="#000000" d="M 389 311.5 L 542.91162109375 311.5" stroke-miterlimit="10"/></g></g><g transform="translate(-374,-30) scale(1,1)"><g><path fill="none" stroke="none"/><text fill="#000000" stroke="none" font-family="Arial" font-size="13px" font-style="normal" font-weight="normal" text-decoration="none" x="389" y="326.5">+CONTROLS: int = 1 {readOnly}</text><path fill="none" stroke="#000000" d="M 389 326.5 L 576.865234375 326.5" stroke-miterlimit="10"/></g></g><g transform="translate(-374,-30) scale(1,1)"><g><path fill="none" stroke="none"/><text fill="#000000" stroke="none" font-family="Arial" font-size="13px" font-style="normal" font-weight="normal" text-decoration="none" x="389" y="341.5">+BOAT_SELECT: int = 2 {readOnly}</text><path fill="none" stroke="#000000" d="M 389 341.5 L 595.42578125 341.5" stroke-miterlimit="10"/></g></g><g transform="translate(-374,-30) scale(1,1)"><g><path fill="none" stroke="none"/><text fill="#000000" stroke="none" font-family="Arial" font-size="13px" font-style="normal" font-weight="normal" text-decoration="none" x="389" y="356.5">+SETTINGS: int = 3 {readOnly}</text><path fill="none" stroke="#000000" d="M 389 356.5 L 569.6416015625 356.5" stroke-miterlimit="10"/></g></g><g transform="translate(-374,-30) scale(1,1)"><g><path fill="none" stroke="none"/><text fill="#000000" stroke="none" font-family="Arial" font-size="13px" font-style="normal" font-weight="normal" text-decoration="none" x="389" y="371.5">+RACE_LEG: int = 4 {readOnly}</text><path fill="none" stroke="#000000" d="M 389 371.5 L 573.99609375 371.5" stroke-miterlimit="10"/></g></g><g transform="translate(-374,-30) scale(1,1)"><g><path fill="none" stroke="none"/><text fill="#000000" stroke="none" font-family="Arial" font-size="13px" font-style="normal" font-weight="normal" text-decoration="none" x="389" y="386.5">+PODIUM: int = 5 {readOnly}</text><path fill="none" stroke="#000000" d="M 389 386.5 L 556.63525390625 386.5" stroke-miterlimit="10"/></g></g><g transform="translate(-374,-30) scale(1,1)"><g><path fill="none" stroke="none"/><text fill="#000000" stroke="none" font-family="Arial" font-size="13px" font-style="normal" font-weight="normal" text-decoration="none" x="389" y="401.5">+NEXT: int = 6 {readOnly}</text><path fill="none" stroke="#000000" d="M 389 401.5 L 537.865234375 401.5" stroke-miterlimit="10"/></g></g><g transform="translate(-374,-30) scale(1,1)"><g><path fill="none" stroke="none"/><text fill="#000000" stroke="none" font-family="Arial" font-size="13px" font-style="normal" font-weight="normal" text-decoration="none" x="389" y="416.5">+GAME_OVER: int = 7 {readOnly}</text><path fill="none" stroke="#000000" d="M 389 416.5 L 586.98974609375 416.5" stroke-miterlimit="10"/></g></g><g transform="translate(-374,-30) scale(1,1)"><g><path fill="none" stroke="none"/><text fill="#000000" stroke="none" font-family="Arial" font-size="13px" font-style="normal" font-weight="normal" text-decoration="none" x="389" y="431.5">+INFO_SCREEN: int = 8 {readOnly}</text><path fill="none" stroke="#000000" d="M 389 431.5 L 597.09521484375 431.5" stroke-miterlimit="10"/></g></g><g transform="translate(-374,-30) scale(1,1)"><g><path fill="none" stroke="none"/><text fill="#000000" stroke="none" font-family="Arial" font-size="13px" font-style="normal" font-weight="normal" text-decoration="none" x="389" y="446.5">+texture_store: TextureStore</text></g></g><g transform="translate(-374,-30) scale(1,1)"><g><path fill="none" stroke="none"/><text fill="#000000" stroke="none" font-family="Arial" font-size="13px" font-style="normal" font-weight="normal" text-decoration="none" x="389" y="461.5">+skin_store: SkinStore</text></g></g><g transform="translate(-374,-30) scale(1,1)"><g><path fill="none" stroke="none"/><text fill="#000000" stroke="none" font-family="Arial" font-size="13px" font-style="normal" font-weight="normal" text-decoration="none" x="389" y="476.5">+score_board: ScoreBoard</text></g></g><g transform="translate(-374,-30) scale(1,1)"><g><path fill="none" stroke="none"/><text fill="#000000" stroke="none" font-family="Arial" font-size="13px" font-style="normal" font-weight="normal" text-decoration="none" x="389" y="499.5">+create()</text></g></g><g transform="translate(-374,-30) scale(1,1)"><g><path fill="none" stroke="none"/><text fill="#000000" stroke="none" font-family="Arial" font-size="13px" font-style="normal" font-weight="normal" text-decoration="none" x="389" y="514.5">+changeScreen(screen: int)</text></g></g><g transform="translate(-374,-30) scale(1,1)"><g><path fill="none" stroke="none"/><text fill="#000000" stroke="none" font-family="Arial" font-size="13px" font-style="normal" font-weight="normal" text-decoration="none" x="389" y="529.5">+getSettings()</text></g></g><g transform="translate(-374,-30) scale(1,1)"><g><path fill="none" stroke="none"/><text fill="#000000" stroke="none" font-family="Arial" font-size="13px" font-style="normal" font-weight="normal" text-decoration="none" x="389" y="544.5">+dispose()</text></g></g><g transform="translate(-374,-30) scale(1,1)"><path fill="#C0C0C0" stroke="none" d="M 502.7099609375 58.5 C 502.7099609375 52.1487248 507.8586857375 47 514.2099609375 47 C 520.5612361375 47 525.7099609375 52.1487248 525.7099609375 58.5 C 525.7099609375 64.8512752 520.5612361375 70 514.2099609375 70 C 507.8586857375 70 502.7099609375 64.8512752 502.7099609375 58.5 Z" opacity="0.2"/></g><g transform="translate(-374,-30) scale(1,1)"><path fill="#ffffff" stroke="none" d="M 495.7099609375 51.5 C 495.7099609375 45.1487248 500.8586857375 40 507.2099609375 40 C 513.5612361375 40 518.7099609375 45.1487248 518.7099609375 51.5 C 518.7099609375 57.8512752 513.5612361375 63 507.2099609375 63 C 500.8586857375 63 495.7099609375 57.8512752 495.7099609375 51.5 Z"/></g><g transform="translate(-374,-30) scale(1,1)"><path fill="none" stroke="#000000" d="M 495.7099609375 51.5 C 495.7099609375 45.1487248 500.8586857375 40 507.2099609375 40 C 513.5612361375 40 518.7099609375 45.1487248 518.7099609375 51.5 C 518.7099609375 57.8512752 513.5612361375 63 507.2099609375 63 C 500.8586857375 63 495.7099609375 57.8512752 495.7099609375 51.5 Z" stroke-miterlimit="10"/></g><g transform="translate(-374,-30) scale(1,1)"><g><path fill="none" stroke="none"/><text fill="#000000" stroke="none" font-family="Arial" font-size="13px" font-style="normal" font-weight="bold" text-decoration="none" x="489.509521484375" y="82.5">Game</text></g></g><g transform="translate(-374,-30) scale(1,1)"><path fill="none" stroke="#000000" d="M 507 89 L 506 103" stroke-miterlimit="10"/></g><g transform="translate(-374,-30) scale(1,1)"><path fill="none" stroke="#000000" d="M 502.5252404957619 92.56323582772384 L 506 103 L 510.9228807114221 93.16306727169957" stroke-miterlimit="10"/></g></g></svg>